# Blender 4.1.1
# www.blender.org
mtllib playerlefthand.mtl
o Cube.007
v 0.262563 -0.922590 -0.120355
v 0.262563 -0.922590 0.123696
v 0.262563 0.114257 -0.120355
v 0.262563 0.114257 0.123696
v 0.059944 -0.922590 -0.120355
v 0.059944 -0.922590 0.123696
v 0.059944 0.114257 -0.120355
v 0.059944 0.114257 0.123696
v 0.221032 -1.055354 -0.207698
v 0.221032 -1.055354 0.211038
v 0.221032 -0.915179 -0.207698
v 0.221032 -0.915179 0.211038
v 0.101475 -1.055354 -0.207698
v 0.101475 -1.055354 0.211038
v 0.101475 -0.915179 -0.207698
v 0.101475 -0.915179 0.211038
v 0.216416 -1.247231 -0.196593
v 0.216416 -1.247231 -0.077225
v 0.216416 -1.035962 -0.196593
v 0.216416 -1.035962 -0.077225
v 0.100480 -1.247231 -0.196593
v 0.100480 -1.247231 -0.077225
v 0.100480 -1.035962 -0.196593
v 0.100480 -1.035962 -0.077225
v 0.216416 -1.247231 0.076167
v 0.216416 -1.247231 0.195536
v 0.216416 -1.035962 0.076167
v 0.216416 -1.035962 0.195536
v 0.100480 -1.247231 0.076167
v 0.100480 -1.247231 0.195536
v 0.100480 -1.035962 0.076167
v 0.100480 -1.035962 0.195536
vn -0.0000 -0.0000 -1.0000
vn -0.0000 1.0000 -0.0000
vn -1.0000 -0.0000 -0.0000
vn -0.0000 -0.0000 1.0000
vn 1.0000 -0.0000 -0.0000
vn -0.0000 -1.0000 -0.0000
vt 0.404228 0.500828
vt 0.481307 0.096543
vt 0.483161 0.500466
vt 0.401937 0.001831
vt 0.480870 0.001469
vt 0.000305 0.502683
vt 0.404664 0.595903
vt 0.000742 0.597757
vt 0.483598 0.595540
vt 0.406519 0.999825
vt 0.887520 0.593686
vt 0.188486 0.155255
vt 0.194494 0.226776
vt 0.155703 0.188340
vt 0.343154 0.308509
vt 0.310371 0.341594
vt 0.226922 0.116464
vt 0.072609 0.040437
vt 0.111045 0.001646
vt 0.039826 0.073522
vt 0.033818 0.002001
vt 0.001390 0.112313
vt 0.566424 0.130119
vt 0.611211 0.047608
vt 0.611589 0.129912
vt 0.565832 0.001313
vt 0.610998 0.001105
vt 0.484120 0.130497
vt 0.566637 0.176621
vt 0.484333 0.176999
vt 0.611802 0.176414
vt 0.567015 0.258925
vt 0.694106 0.176036
vt 0.131679 0.341959
vt 0.049167 0.297171
vt 0.131471 0.296793
vt 0.002872 0.342550
vt 0.002665 0.297385
vt 0.132057 0.424263
vt 0.178181 0.341745
vt 0.178559 0.424049
vt 0.177974 0.296580
vt 0.260485 0.341367
vt 0.131094 0.214490
vt 0.177596 0.214276
vt 0.402373 0.096906
vt 0.485452 0.999463
vt 0.887084 0.498611
vt 0.227277 0.193691
vt 0.001036 0.035086
vt 0.117267 0.227131
vt 0.566046 0.047815
vt 0.612180 0.258718
vt 0.693893 0.129534
vt 0.049375 0.342337
vt 0.260278 0.296202
s 0
usemtl マテリアル.004
f 5/1/1 3/2/1 1/3/1
f 3/2/2 8/4/2 4/5/2
f 7/6/3 6/7/3 8/8/3
f 2/9/4 8/10/4 6/7/4
f 1/3/5 4/11/5 2/9/5
f 5/1/6 2/9/6 6/7/6
f 13/12/1 11/13/1 9/14/1
f 11/13/2 16/15/2 12/16/2
f 15/17/3 14/18/3 16/19/3
f 10/20/4 16/21/4 14/18/4
f 9/14/5 12/22/5 10/20/5
f 13/12/6 10/20/6 14/18/6
f 21/23/1 19/24/1 17/25/1
f 19/24/2 24/26/2 20/27/2
f 23/28/3 22/29/3 24/30/3
f 18/31/4 24/32/4 22/29/4
f 17/25/5 20/33/5 18/31/5
f 21/23/6 18/31/6 22/29/6
f 29/34/1 27/35/1 25/36/1
f 27/35/2 32/37/2 28/38/2
f 31/39/3 30/40/3 32/41/3
f 26/42/4 32/43/4 30/40/4
f 26/42/5 27/44/5 28/45/5
f 29/34/6 26/42/6 30/40/6
f 5/1/1 7/46/1 3/2/1
f 3/2/2 7/46/2 8/4/2
f 7/6/3 5/1/3 6/7/3
f 2/9/4 4/47/4 8/10/4
f 1/3/5 3/48/5 4/11/5
f 5/1/6 1/3/6 2/9/6
f 13/12/1 15/49/1 11/13/1
f 11/13/2 15/49/2 16/15/2
f 15/17/3 13/12/3 14/18/3
f 10/20/4 12/50/4 16/21/4
f 9/14/5 11/51/5 12/22/5
f 13/12/6 9/14/6 10/20/6
f 21/23/1 23/52/1 19/24/1
f 19/24/2 23/52/2 24/26/2
f 23/28/3 21/23/3 22/29/3
f 18/31/4 20/53/4 24/32/4
f 17/25/5 19/54/5 20/33/5
f 21/23/6 17/25/6 18/31/6
f 29/34/1 31/55/1 27/35/1
f 27/35/2 31/55/2 32/37/2
f 31/39/3 29/34/3 30/40/3
f 26/42/4 28/56/4 32/43/4
f 26/42/5 25/36/5 27/44/5
f 29/34/6 25/36/6 26/42/6
