# Blender 4.1.1
# www.blender.org
mtllib player.mtl
o 立方体
v 1.857603 0.244823 -0.241599
v 1.196324 2.608093 -0.016671
v 1.857603 0.244823 0.208257
v 1.383211 0.161175 -0.241599
v 1.383211 0.161175 0.208257
v 0.600000 3.031921 -0.600000
v 0.600000 4.231921 -0.600000
v 0.600000 3.031921 0.600000
v 0.600000 4.231921 0.600000
v -0.600000 3.031921 -0.600000
v -0.600000 4.231921 -0.600000
v -0.600000 3.031921 0.600000
v -0.600000 4.231921 0.600000
v -1.200000 2.748395 0.500000
v 0.000000 -0.051605 0.500000
v -1.200000 2.748395 -0.500000
v 0.000000 -0.051605 -0.500000
v 1.200000 2.748395 0.500000
v 1.200000 2.748395 -0.500000
v -1.383211 0.161175 -0.241599
v -1.196324 2.608093 -0.016671
v -1.383211 0.161175 0.208257
v -1.857603 0.244823 -0.241599
v -1.857603 0.244823 0.208257
vn 0.9630 0.2695 -0.0000
vn -0.0159 0.0903 0.9958
vn -0.9971 -0.0762 -0.0000
vn -0.0159 0.0903 -0.9958
vn 0.1736 -0.9848 -0.0000
vn 1.0000 -0.0000 -0.0000
vn -0.0000 -0.0000 1.0000
vn -1.0000 -0.0000 -0.0000
vn -0.0000 -0.0000 -1.0000
vn -0.0000 -1.0000 -0.0000
vn -0.0000 1.0000 -0.0000
vn 0.9191 -0.3939 -0.0000
vn -0.9191 -0.3939 -0.0000
vn 0.9971 -0.0762 -0.0000
vn 0.0159 0.0903 0.9958
vn -0.9630 0.2695 -0.0000
vn 0.0159 0.0903 -0.9958
vn -0.1736 -0.9848 -0.0000
vt 0.247859 0.628908
vt 0.405789 0.644099
vt 0.247729 0.657870
vt 0.484966 0.144925
vt 0.327488 0.125597
vt 0.485717 0.113920
vt 0.406092 0.192379
vt 0.563889 0.208899
vt 0.405718 0.221340
vt 0.484837 0.058848
vt 0.327441 0.038867
vt 0.485717 0.027847
vt 0.326762 0.497742
vt 0.355724 0.528756
vt 0.326762 0.528756
vt 0.495448 0.650844
vt 0.572707 0.573585
vt 0.572707 0.650844
vt 0.495448 0.573585
vt 0.572707 0.496326
vt 0.495448 0.496326
vt 0.572707 0.419068
vt 0.495448 0.419068
vt 0.572707 0.341809
vt 0.649965 0.419068
vt 0.649965 0.496326
vt 0.418189 0.496326
vt 0.272092 0.378282
vt 0.207666 0.223783
vt 0.272049 0.223765
vt 0.027418 0.301093
vt 0.207710 0.378301
vt 0.272148 0.574411
vt 0.207766 0.574429
vt 0.207611 0.027655
vt 0.271993 0.027637
vt 0.452341 0.300973
vt 0.056213 0.373120
vt 0.045117 0.531391
vt 0.027257 0.373740
vt 0.058848 0.027651
vt 0.041219 0.185328
vt 0.027837 0.027234
vt 0.098400 0.555106
vt 0.110008 0.396872
vt 0.127358 0.554579
vt 0.098101 0.185205
vt 0.114237 0.027368
vt 0.129115 0.185328
vt 0.362751 0.411960
vt 0.331737 0.440922
vt 0.331737 0.411960
vt 0.355724 0.497742
vt 0.495448 0.341809
vt 0.418189 0.419068
vt 0.362751 0.440922
s 0
usemtl Material
f 1/1/1 2/2/1 3/3/1
f 3/4/2 2/5/2 5/6/2
f 5/7/3 2/8/3 4/9/3
f 4/10/4 2/11/4 1/12/4
f 5/13/5 1/14/5 3/15/5
f 7/16/6 8/17/6 6/18/6
f 9/19/7 12/20/7 8/17/7
f 13/21/8 10/22/8 12/20/8
f 11/23/9 6/24/9 10/22/9
f 12/20/10 6/25/10 8/26/10
f 9/27/11 11/23/11 13/21/11
f 18/28/11 16/29/11 14/30/11
f 17/31/9 16/29/9 19/32/9
f 19/32/12 15/33/12 17/34/12
f 14/30/13 17/35/13 15/36/13
f 15/37/7 18/28/7 14/30/7
f 20/38/14 21/39/14 22/40/14
f 22/41/15 21/42/15 24/43/15
f 24/44/16 21/45/16 23/46/16
f 23/47/17 21/48/17 20/49/17
f 24/50/18 20/51/18 22/52/18
f 5/13/5 4/53/5 1/14/5
f 7/16/6 9/19/6 8/17/6
f 9/19/7 13/21/7 12/20/7
f 13/21/8 11/23/8 10/22/8
f 11/23/9 7/54/9 6/24/9
f 12/20/10 10/22/10 6/25/10
f 9/27/11 7/55/11 11/23/11
f 18/28/11 19/32/11 16/29/11
f 19/32/12 18/28/12 15/33/12
f 14/30/13 16/29/13 17/35/13
f 24/50/18 23/56/18 20/51/18
