# Blender 4.1.1
# www.blender.org
mtllib enemyweapon.mtl
o 円柱.004
v 0.191326 0.065157 1.285592
v 0.191326 0.011719 1.689040
v 0.202986 0.064009 1.285592
v 0.192561 0.011598 1.689040
v 0.214198 0.060608 1.285592
v 0.193748 0.011237 1.689040
v 0.224531 0.055084 1.285592
v 0.194843 0.010652 1.689040
v 0.233589 0.047651 1.285592
v 0.195802 0.009865 1.689040
v 0.241022 0.038594 1.285592
v 0.196590 0.008906 1.689040
v 0.246545 0.028261 1.285592
v 0.197175 0.007811 1.689040
v 0.249946 0.017049 1.285592
v 0.197535 0.006624 1.689040
v 0.251094 0.005388 1.285592
v 0.197657 0.005388 1.689040
v 0.249946 -0.006272 1.285592
v 0.197535 0.004153 1.689040
v 0.246545 -0.017484 1.285592
v 0.197175 0.002966 1.689040
v 0.241022 -0.027817 1.285592
v 0.196590 0.001871 1.689040
v 0.233589 -0.036874 1.285592
v 0.195802 0.000912 1.689040
v 0.224531 -0.044307 1.285592
v 0.194843 0.000124 1.689040
v 0.214198 -0.049831 1.285592
v 0.193748 -0.000461 1.689040
v 0.202986 -0.053232 1.285592
v 0.192561 -0.000821 1.689040
v 0.191326 -0.054380 1.285592
v 0.191326 -0.000943 1.689040
v 0.179665 -0.053232 1.285592
v 0.190091 -0.000821 1.689040
v 0.168453 -0.049831 1.285592
v 0.188903 -0.000461 1.689040
v 0.158120 -0.044307 1.285592
v 0.187808 0.000124 1.689040
v 0.149063 -0.036874 1.285592
v 0.186849 0.000912 1.689040
v 0.141630 -0.027817 1.285592
v 0.186062 0.001871 1.689040
v 0.136107 -0.017484 1.285592
v 0.185477 0.002966 1.689040
v 0.132705 -0.006272 1.285592
v 0.185116 0.004153 1.689040
v 0.131557 0.005388 1.285592
v 0.184995 0.005388 1.689040
v 0.132705 0.017049 1.285592
v 0.185116 0.006624 1.689040
v 0.136107 0.028261 1.285592
v 0.185477 0.007811 1.689040
v 0.141630 0.038594 1.285592
v 0.186062 0.008906 1.689040
v 0.149063 0.047651 1.285592
v 0.186849 0.009865 1.689040
v 0.158120 0.055084 1.285592
v 0.187808 0.010652 1.689040
v 0.168453 0.060608 1.285592
v 0.188903 0.011237 1.689040
v 0.179665 0.064009 1.285592
v 0.190091 0.011598 1.689040
v 0.003763 0.065157 -0.717735
v 0.003763 0.065157 1.282265
v 0.015423 0.064009 -0.717735
v 0.015423 0.064009 1.282265
v 0.026636 0.060608 -0.717735
v 0.026636 0.060608 1.282265
v 0.036969 0.055084 -0.717735
v 0.036969 0.055084 1.282265
v 0.046026 0.047651 -0.717735
v 0.046026 0.047651 1.282265
v 0.053459 0.038594 -0.717735
v 0.053459 0.038594 1.282265
v 0.058982 0.028261 -0.717735
v 0.058982 0.028261 1.282265
v 0.062383 0.017049 -0.717735
v 0.062383 0.017049 1.282265
v 0.063532 0.005389 -0.717735
v 0.063532 0.005388 1.282265
v 0.062383 -0.006272 -0.717735
v 0.062383 -0.006272 1.282265
v 0.058982 -0.017484 -0.717735
v 0.058982 -0.017484 1.282265
v 0.053459 -0.027817 -0.717735
v 0.053459 -0.027817 1.282265
v 0.046026 -0.036874 -0.717735
v 0.046026 -0.036874 1.282265
v 0.036969 -0.044307 -0.717735
v 0.036969 -0.044307 1.282265
v 0.026636 -0.049831 -0.717735
v 0.026636 -0.049831 1.282265
v 0.015423 -0.053232 -0.717735
v 0.015423 -0.053232 1.282265
v 0.003763 -0.054380 -0.717735
v 0.003763 -0.054380 1.282265
v -0.007897 -0.053232 -0.717735
v -0.007897 -0.053232 1.282265
v -0.019109 -0.049831 -0.717735
v -0.019109 -0.049831 1.282265
v -0.029443 -0.044307 -0.717735
v -0.029443 -0.044307 1.282265
v -0.038500 -0.036874 -0.717735
v -0.038500 -0.036874 1.282265
v -0.045933 -0.027817 -0.717735
v -0.045933 -0.027817 1.282265
v -0.051456 -0.017484 -0.717735
v -0.051456 -0.017484 1.282265
v -0.054857 -0.006272 -0.717735
v -0.054857 -0.006272 1.282265
v -0.056006 0.005389 -0.717735
v -0.056006 0.005388 1.282265
v -0.054857 0.017049 -0.717735
v -0.054857 0.017049 1.282265
v -0.051456 0.028261 -0.717735
v -0.051456 0.028261 1.282265
v -0.045933 0.038594 -0.717735
v -0.045933 0.038594 1.282265
v -0.038500 0.047651 -0.717735
v -0.038500 0.047651 1.282265
v -0.029443 0.055084 -0.717735
v -0.029443 0.055084 1.282265
v -0.019109 0.060608 -0.717735
v -0.019109 0.060608 1.282265
v -0.007897 0.064009 -0.717735
v -0.007897 0.064009 1.282265
v -0.248711 0.065157 1.287757
v 0.256243 0.065157 1.287757
v -0.248711 0.064009 1.276097
v 0.256243 0.064009 1.276097
v -0.248711 0.060608 1.264885
v 0.256243 0.060608 1.264885
v -0.248711 0.055084 1.254551
v 0.256243 0.055084 1.254551
v -0.248711 0.047651 1.245494
v 0.256243 0.047651 1.245494
v -0.248711 0.038594 1.238061
v 0.256243 0.038594 1.238061
v -0.248711 0.028261 1.232538
v 0.256243 0.028261 1.232538
v -0.248711 0.017049 1.229137
v 0.256243 0.017049 1.229137
v -0.248711 0.005388 1.227988
v 0.256243 0.005388 1.227988
v -0.248711 -0.006272 1.229137
v 0.256243 -0.006272 1.229137
v -0.248711 -0.017484 1.232538
v 0.256243 -0.017484 1.232538
v -0.248711 -0.027817 1.238061
v 0.256243 -0.027817 1.238061
v -0.248711 -0.036874 1.245494
v 0.256243 -0.036874 1.245494
v -0.248711 -0.044307 1.254551
v 0.256243 -0.044307 1.254551
v -0.248711 -0.049831 1.264885
v 0.256243 -0.049831 1.264885
v -0.248711 -0.053232 1.276097
v 0.256243 -0.053232 1.276097
v -0.248711 -0.054380 1.287757
v 0.256243 -0.054380 1.287757
v -0.248711 -0.053232 1.299417
v 0.256243 -0.053232 1.299417
v -0.248711 -0.049831 1.310630
v 0.256243 -0.049831 1.310630
v -0.248711 -0.044307 1.320963
v 0.256243 -0.044307 1.320963
v -0.248711 -0.036874 1.330020
v 0.256243 -0.036874 1.330020
v -0.248711 -0.027817 1.337453
v 0.256243 -0.027817 1.337453
v -0.248711 -0.017484 1.342976
v 0.256243 -0.017484 1.342976
v -0.248711 -0.006272 1.346377
v 0.256243 -0.006272 1.346377
v -0.248711 0.005388 1.347526
v 0.256243 0.005388 1.347526
v -0.248711 0.017049 1.346377
v 0.256243 0.017049 1.346377
v -0.248711 0.028261 1.342976
v 0.256243 0.028261 1.342976
v -0.248711 0.038594 1.337453
v 0.256243 0.038594 1.337453
v -0.248711 0.047651 1.330020
v 0.256243 0.047651 1.330020
v -0.248711 0.055084 1.320963
v 0.256243 0.055084 1.320963
v -0.248711 0.060608 1.310630
v 0.256243 0.060608 1.310630
v -0.248711 0.064009 1.299417
v 0.256243 0.064009 1.299417
v 0.003763 0.065157 1.285592
v 0.003763 0.011719 1.689040
v 0.015423 0.064009 1.285592
v 0.004998 0.011598 1.689040
v 0.026636 0.060608 1.285592
v 0.006186 0.011237 1.689040
v 0.036969 0.055084 1.285592
v 0.007280 0.010652 1.689040
v 0.046026 0.047651 1.285592
v 0.008240 0.009865 1.689040
v 0.053459 0.038594 1.285592
v 0.009027 0.008906 1.689040
v 0.058982 0.028261 1.285592
v 0.009612 0.007811 1.689040
v 0.062383 0.017049 1.285592
v 0.009972 0.006624 1.689040
v 0.063532 0.005388 1.285592
v 0.010094 0.005388 1.689040
v 0.062383 -0.006272 1.285592
v 0.009972 0.004153 1.689040
v 0.058982 -0.017484 1.285592
v 0.009612 0.002966 1.689040
v 0.053459 -0.027817 1.285592
v 0.009027 0.001871 1.689040
v 0.046026 -0.036874 1.285592
v 0.008240 0.000912 1.689040
v 0.036969 -0.044307 1.285592
v 0.007280 0.000124 1.689040
v 0.026636 -0.049831 1.285592
v 0.006186 -0.000461 1.689040
v 0.015423 -0.053232 1.285592
v 0.004998 -0.000821 1.689040
v 0.003763 -0.054380 1.285592
v 0.003763 -0.000943 1.689040
v -0.007897 -0.053232 1.285592
v 0.002528 -0.000821 1.689040
v -0.019109 -0.049831 1.285592
v 0.001340 -0.000461 1.689040
v -0.029443 -0.044307 1.285592
v 0.000246 0.000124 1.689040
v -0.038500 -0.036874 1.285592
v -0.000714 0.000912 1.689040
v -0.045933 -0.027817 1.285592
v -0.001501 0.001871 1.689040
v -0.051456 -0.017484 1.285592
v -0.002086 0.002966 1.689040
v -0.054857 -0.006272 1.285592
v -0.002446 0.004153 1.689040
v -0.056006 0.005388 1.285592
v -0.002568 0.005388 1.689040
v -0.054857 0.017049 1.285592
v -0.002446 0.006624 1.689040
v -0.051456 0.028261 1.285592
v -0.002086 0.007811 1.689040
v -0.045933 0.038594 1.285592
v -0.001501 0.008906 1.689040
v -0.038500 0.047651 1.285592
v -0.000714 0.009865 1.689040
v -0.029443 0.055084 1.285592
v 0.000246 0.010652 1.689040
v -0.019109 0.060608 1.285592
v 0.001340 0.011237 1.689040
v -0.007897 0.064009 1.285592
v 0.002528 0.011598 1.689040
v -0.187959 0.065157 1.285592
v -0.187959 0.011719 1.689040
v -0.176299 0.064009 1.285592
v -0.186724 0.011598 1.689040
v -0.165087 0.060608 1.285592
v -0.185536 0.011237 1.689040
v -0.154753 0.055084 1.285592
v -0.184442 0.010652 1.689040
v -0.145696 0.047651 1.285592
v -0.183482 0.009865 1.689040
v -0.138263 0.038594 1.285592
v -0.182695 0.008906 1.689040
v -0.132740 0.028261 1.285592
v -0.182110 0.007811 1.689040
v -0.129339 0.017049 1.285592
v -0.181750 0.006624 1.689040
v -0.128190 0.005388 1.285592
v -0.181628 0.005388 1.689040
v -0.129339 -0.006272 1.285592
v -0.181750 0.004153 1.689040
v -0.132740 -0.017484 1.285592
v -0.182110 0.002966 1.689040
v -0.138263 -0.027817 1.285592
v -0.182695 0.001871 1.689040
v -0.145696 -0.036874 1.285592
v -0.183482 0.000912 1.689040
v -0.154753 -0.044307 1.285592
v -0.184442 0.000124 1.689040
v -0.165087 -0.049831 1.285592
v -0.185536 -0.000461 1.689040
v -0.176299 -0.053232 1.285592
v -0.186724 -0.000821 1.689040
v -0.187959 -0.054380 1.285592
v -0.187959 -0.000943 1.689040
v -0.199619 -0.053232 1.285592
v -0.189194 -0.000821 1.689040
v -0.210832 -0.049831 1.285592
v -0.190382 -0.000461 1.689040
v -0.221165 -0.044307 1.285592
v -0.191476 0.000124 1.689040
v -0.230222 -0.036874 1.285592
v -0.192436 0.000912 1.689040
v -0.237655 -0.027817 1.285592
v -0.193223 0.001871 1.689040
v -0.243178 -0.017484 1.285592
v -0.193808 0.002966 1.689040
v -0.246579 -0.006272 1.285592
v -0.194168 0.004153 1.689040
v -0.247728 0.005388 1.285592
v -0.194290 0.005388 1.689040
v -0.246579 0.017049 1.285592
v -0.194168 0.006624 1.689040
v -0.243178 0.028261 1.285592
v -0.193808 0.007811 1.689040
v -0.237655 0.038594 1.285592
v -0.193223 0.008906 1.689040
v -0.230222 0.047651 1.285592
v -0.192436 0.009865 1.689040
v -0.221165 0.055084 1.285592
v -0.191476 0.010652 1.689040
v -0.210832 0.060608 1.285592
v -0.190382 0.011237 1.689040
v -0.199619 0.064009 1.285592
v -0.189194 0.011598 1.689040
vn 0.0972 0.9866 0.1307
vn 0.2878 0.9487 0.1307
vn 0.4674 0.8744 0.1307
vn 0.6290 0.7664 0.1307
vn 0.7664 0.6289 0.1307
vn 0.8744 0.4674 0.1307
vn 0.9487 0.2878 0.1307
vn 0.9867 0.0972 0.1307
vn 0.9867 -0.0972 0.1307
vn 0.9487 -0.2878 0.1307
vn 0.8744 -0.4674 0.1307
vn 0.7664 -0.6290 0.1307
vn 0.6290 -0.7664 0.1307
vn 0.4673 -0.8744 0.1307
vn 0.2878 -0.9487 0.1307
vn 0.0972 -0.9867 0.1307
vn -0.0972 -0.9867 0.1307
vn -0.2878 -0.9487 0.1307
vn -0.4673 -0.8744 0.1307
vn -0.6290 -0.7664 0.1307
vn -0.7664 -0.6290 0.1307
vn -0.8744 -0.4674 0.1307
vn -0.9487 -0.2878 0.1307
vn -0.9867 -0.0972 0.1307
vn -0.9867 0.0972 0.1307
vn -0.9487 0.2878 0.1307
vn -0.8744 0.4674 0.1307
vn -0.7664 0.6289 0.1307
vn -0.6290 0.7664 0.1307
vn -0.4673 0.8744 0.1307
vn -0.0000 -0.0000 1.0000
vn -0.2878 0.9487 0.1307
vn -0.0972 0.9866 0.1307
vn -0.0000 -0.0000 -1.0000
vn 0.0980 0.9952 -0.0000
vn 0.2903 0.9569 -0.0000
vn 0.4714 0.8819 -0.0000
vn 0.6344 0.7730 -0.0000
vn 0.7730 0.6344 -0.0000
vn 0.8819 0.4714 -0.0000
vn 0.9569 0.2903 -0.0000
vn 0.9952 0.0980 -0.0000
vn 0.9952 -0.0980 -0.0000
vn 0.9569 -0.2903 -0.0000
vn 0.8819 -0.4714 -0.0000
vn 0.7730 -0.6344 -0.0000
vn 0.6344 -0.7730 -0.0000
vn 0.4714 -0.8819 -0.0000
vn 0.2903 -0.9569 -0.0000
vn 0.0980 -0.9952 -0.0000
vn -0.0980 -0.9952 -0.0000
vn -0.2903 -0.9569 -0.0000
vn -0.4714 -0.8819 -0.0000
vn -0.6344 -0.7730 -0.0000
vn -0.7730 -0.6344 -0.0000
vn -0.8819 -0.4714 -0.0000
vn -0.9569 -0.2903 -0.0000
vn -0.9952 -0.0980 -0.0000
vn -0.9952 0.0980 -0.0000
vn -0.9569 0.2903 -0.0000
vn -0.8819 0.4714 -0.0000
vn -0.7730 0.6344 -0.0000
vn -0.6344 0.7730 -0.0000
vn -0.4714 0.8819 -0.0000
vn -0.2903 0.9569 -0.0000
vn -0.0980 0.9952 -0.0000
vn -0.0000 0.9952 -0.0980
vn -0.0000 0.9569 -0.2903
vn -0.0000 0.8819 -0.4714
vn -0.0000 0.7730 -0.6344
vn -0.0000 0.6344 -0.7730
vn -0.0000 0.4714 -0.8819
vn -0.0000 0.2903 -0.9569
vn -0.0000 0.0980 -0.9952
vn -0.0000 -0.0980 -0.9952
vn -0.0000 -0.2903 -0.9569
vn -0.0000 -0.4714 -0.8819
vn -0.0000 -0.6344 -0.7730
vn -0.0000 -0.7730 -0.6344
vn -0.0000 -0.8819 -0.4714
vn -0.0000 -0.9569 -0.2903
vn -0.0000 -0.9952 -0.0980
vn -0.0000 -0.9952 0.0980
vn -0.0000 -0.9569 0.2903
vn -0.0000 -0.8819 0.4714
vn -0.0000 -0.7730 0.6344
vn -0.0000 -0.6344 0.7730
vn -0.0000 -0.4714 0.8819
vn -0.0000 -0.2903 0.9569
vn -0.0000 -0.0980 0.9952
vn -0.0000 0.0980 0.9952
vn -0.0000 0.2903 0.9569
vn -0.0000 0.4714 0.8819
vn -0.0000 0.6344 0.7730
vn -0.0000 0.7730 0.6344
vn -0.0000 0.8819 0.4714
vn 1.0000 -0.0000 -0.0000
vn -0.0000 0.9569 0.2903
vn -0.0000 0.9952 0.0980
vn -1.0000 -0.0000 -0.0000
vn 0.9866 0.0972 0.1307
vn -0.4674 0.8744 0.1307
vn 0.4673 0.8744 0.1307
vn 0.6289 0.7664 0.1307
vn 0.8743 0.4674 0.1307
vn 0.9866 -0.0972 0.1307
vn 0.8743 -0.4674 0.1307
vn 0.7664 -0.6289 0.1307
vn 0.6289 -0.7664 0.1307
vn 0.0972 -0.9866 0.1307
vn -0.0972 -0.9866 0.1307
vn -0.6289 -0.7664 0.1307
vn -0.7664 -0.6289 0.1307
vn -0.8743 -0.4674 0.1307
vn -0.9866 -0.0973 0.1307
vn -0.9866 0.0972 0.1307
vn -0.8743 0.4674 0.1307
vn -0.6289 0.7664 0.1307
vn -0.0000 -0.0015 1.0000
vn -0.0000 -0.0008 1.0000
vn -0.0000 0.0008 1.0000
vn -0.0000 0.0015 1.0000
vn -0.0000 0.0001 1.0000
vn -0.0000 -0.0001 1.0000
vn -0.0000 0.0001 -1.0000
vn -0.0000 -0.0001 -1.0000
vt 0.205143 0.000340
vt 0.000340 0.013141
vt 0.000340 0.000340
vt 0.205143 0.013141
vt 0.000340 0.025941
vt 0.205143 0.038741
vt 0.000340 0.038741
vt 0.205143 0.051541
vt 0.000340 0.051541
vt 0.205143 0.064341
vt 0.000340 0.064341
vt 0.205143 0.077141
vt 0.000340 0.077141
vt 0.205143 0.089941
vt 0.000340 0.089942
vt 0.000340 0.102742
vt 0.205143 0.102742
vt 0.000340 0.115542
vt 0.205143 0.128342
vt 0.000340 0.128342
vt 0.205143 0.141142
vt 0.000340 0.141142
vt 0.205143 0.153942
vt 0.000340 0.153942
vt 0.205143 0.166742
vt 0.000340 0.166742
vt 0.205143 0.179543
vt 0.000340 0.179543
vt 0.000340 0.192343
vt 0.205143 0.205143
vt 0.000340 0.205143
vt 0.000340 0.217943
vt 0.205143 0.230743
vt 0.000340 0.230743
vt 0.000340 0.243543
vt 0.205143 0.243543
vt 0.000340 0.256343
vt 0.205143 0.269144
vt 0.000340 0.269144
vt 0.000340 0.281944
vt 0.205143 0.294744
vt 0.000340 0.294744
vt 0.205143 0.307544
vt 0.000340 0.307544
vt 0.000340 0.320344
vt 0.205143 0.320344
vt 0.000340 0.333144
vt 0.205143 0.333144
vt 0.000340 0.345944
vt 0.205143 0.345944
vt 0.000340 0.358745
vt 0.205143 0.358745
vt 0.000340 0.371545
vt 0.205143 0.384345
vt 0.000340 0.384345
vt 0.415067 0.479921
vt 0.537675 0.414386
vt 0.603211 0.536994
vt 0.000340 0.397145
vt 0.205143 0.397145
vt 0.000340 0.409945
vt 0.812454 0.284881
vt 0.704986 0.196685
vt 0.616790 0.304152
vt 0.410626 0.000340
vt 0.205824 0.013141
vt 0.205824 0.000340
vt 0.410626 0.013141
vt 0.205824 0.025941
vt 0.410626 0.025941
vt 0.205824 0.038741
vt 0.410626 0.038741
vt 0.205824 0.051541
vt 0.410626 0.051541
vt 0.205824 0.064341
vt 0.410626 0.064341
vt 0.205824 0.077141
vt 0.410626 0.077141
vt 0.205824 0.089941
vt 0.410626 0.089941
vt 0.205824 0.102742
vt 0.410626 0.102742
vt 0.205824 0.115542
vt 0.410626 0.115542
vt 0.205824 0.128342
vt 0.410626 0.128342
vt 0.205824 0.141142
vt 0.410626 0.141142
vt 0.205824 0.153942
vt 0.410626 0.153942
vt 0.205824 0.166742
vt 0.410626 0.166742
vt 0.205824 0.179543
vt 0.410626 0.179543
vt 0.205824 0.192343
vt 0.410626 0.192343
vt 0.205824 0.205143
vt 0.410626 0.205143
vt 0.205824 0.217943
vt 0.410626 0.217943
vt 0.205824 0.230743
vt 0.410626 0.230743
vt 0.205824 0.243543
vt 0.410626 0.243543
vt 0.205824 0.256343
vt 0.410626 0.256343
vt 0.205824 0.269144
vt 0.410626 0.269144
vt 0.205824 0.281944
vt 0.410626 0.281944
vt 0.205824 0.294744
vt 0.410626 0.294744
vt 0.205824 0.307544
vt 0.410626 0.307544
vt 0.205824 0.320344
vt 0.410626 0.320344
vt 0.205824 0.333144
vt 0.410626 0.333144
vt 0.205824 0.345944
vt 0.410626 0.345944
vt 0.205824 0.358745
vt 0.410626 0.358745
vt 0.205824 0.371545
vt 0.410626 0.371545
vt 0.205824 0.384345
vt 0.415067 0.676266
vt 0.537675 0.610730
vt 0.603211 0.733339
vt 0.410626 0.384345
vt 0.205824 0.397145
vt 0.410626 0.397145
vt 0.205824 0.409945
vt 0.606971 0.891511
vt 0.499503 0.803315
vt 0.411307 0.910782
vt 0.616109 0.000340
vt 0.411307 0.013141
vt 0.411307 0.000340
vt 0.616109 0.013141
vt 0.411307 0.025941
vt 0.616109 0.025941
vt 0.411307 0.038741
vt 0.616109 0.038741
vt 0.411307 0.051541
vt 0.616109 0.051541
vt 0.411307 0.064341
vt 0.616109 0.064341
vt 0.411307 0.077141
vt 0.616109 0.077141
vt 0.411307 0.089941
vt 0.616109 0.089941
vt 0.411307 0.102742
vt 0.616109 0.102742
vt 0.411307 0.115542
vt 0.616109 0.115542
vt 0.411307 0.128342
vt 0.616109 0.128342
vt 0.411307 0.141142
vt 0.616109 0.141142
vt 0.411307 0.153942
vt 0.616109 0.153942
vt 0.411307 0.166742
vt 0.616109 0.166742
vt 0.411307 0.179543
vt 0.616109 0.179542
vt 0.411307 0.192343
vt 0.616109 0.192343
vt 0.411307 0.205143
vt 0.616109 0.205143
vt 0.411307 0.217943
vt 0.616109 0.217943
vt 0.411307 0.230743
vt 0.616109 0.230743
vt 0.411307 0.243543
vt 0.616109 0.243543
vt 0.411307 0.256343
vt 0.616109 0.256343
vt 0.411307 0.269144
vt 0.616109 0.269144
vt 0.411307 0.281944
vt 0.616109 0.281944
vt 0.411307 0.294744
vt 0.616109 0.307544
vt 0.411307 0.307544
vt 0.411307 0.320344
vt 0.616109 0.320344
vt 0.411307 0.333144
vt 0.616109 0.333144
vt 0.411307 0.345944
vt 0.616109 0.345944
vt 0.411307 0.358745
vt 0.616109 0.358745
vt 0.411307 0.371545
vt 0.616109 0.371545
vt 0.411307 0.384345
vt 0.611411 0.479921
vt 0.734020 0.414386
vt 0.799555 0.536994
vt 0.616109 0.384345
vt 0.411307 0.397145
vt 0.616109 0.397145
vt 0.411307 0.409945
vt 0.803315 0.891511
vt 0.695848 0.803315
vt 0.607651 0.910782
vt 0.205143 0.410626
vt 0.000340 0.423426
vt 0.000340 0.410626
vt 0.205143 0.423426
vt 0.000340 0.436226
vt 0.205143 0.436226
vt 0.000340 0.449027
vt 0.205143 0.461827
vt 0.000340 0.461827
vt 0.000340 0.474627
vt 0.205143 0.474627
vt 0.000340 0.487427
vt 0.205143 0.487427
vt 0.000340 0.500227
vt 0.205143 0.500227
vt 0.000340 0.513027
vt 0.205143 0.513027
vt 0.000340 0.525827
vt 0.205143 0.538628
vt 0.000340 0.538628
vt 0.205143 0.551428
vt 0.000340 0.551428
vt 0.000340 0.564228
vt 0.205143 0.577028
vt 0.000340 0.577028
vt 0.205143 0.589828
vt 0.000340 0.589828
vt 0.000340 0.602628
vt 0.205143 0.615429
vt 0.000340 0.615429
vt 0.000340 0.628229
vt 0.205143 0.641029
vt 0.000340 0.641029
vt 0.000340 0.653829
vt 0.205143 0.666629
vt 0.000340 0.666629
vt 0.205143 0.679429
vt 0.000340 0.679429
vt 0.205143 0.692229
vt 0.000340 0.692229
vt 0.205143 0.705029
vt 0.000340 0.705030
vt 0.205143 0.717830
vt 0.000340 0.717830
vt 0.000340 0.730630
vt 0.205143 0.743430
vt 0.000340 0.743430
vt 0.000340 0.756230
vt 0.205143 0.756230
vt 0.000340 0.769030
vt 0.205143 0.781830
vt 0.000340 0.781830
vt 0.000340 0.794631
vt 0.611411 0.676266
vt 0.734020 0.610730
vt 0.799555 0.733339
vt 0.205143 0.794631
vt 0.000340 0.807431
vt 0.205143 0.807431
vt 0.000340 0.820231
vt 0.999659 0.498822
vt 0.892192 0.410626
vt 0.803996 0.518093
vt 0.205824 0.410626
vt 0.410626 0.423426
vt 0.205824 0.423426
vt 0.205824 0.436226
vt 0.410626 0.436226
vt 0.205824 0.449027
vt 0.410626 0.461827
vt 0.205824 0.461827
vt 0.205824 0.474627
vt 0.410626 0.487427
vt 0.205824 0.487427
vt 0.205824 0.500227
vt 0.410626 0.500227
vt 0.205824 0.513027
vt 0.410626 0.513027
vt 0.205824 0.525827
vt 0.410626 0.525827
vt 0.205824 0.538628
vt 0.410626 0.538628
vt 0.205824 0.551428
vt 0.410626 0.551428
vt 0.205824 0.564228
vt 0.410626 0.577028
vt 0.205824 0.577028
vt 0.205824 0.589828
vt 0.410626 0.589828
vt 0.205824 0.602628
vt 0.410626 0.615429
vt 0.205824 0.615429
vt 0.205824 0.628229
vt 0.410626 0.641029
vt 0.205824 0.641029
vt 0.205824 0.653829
vt 0.410626 0.666629
vt 0.205824 0.666629
vt 0.410626 0.679429
vt 0.205824 0.679429
vt 0.410626 0.692229
vt 0.205824 0.692229
vt 0.205824 0.705029
vt 0.410626 0.717830
vt 0.205824 0.717830
vt 0.205824 0.730630
vt 0.410626 0.730630
vt 0.205824 0.743430
vt 0.410626 0.756230
vt 0.205824 0.756230
vt 0.205824 0.769030
vt 0.410626 0.781830
vt 0.205824 0.781830
vt 0.205824 0.794631
vt 0.620550 0.069636
vt 0.743159 0.004100
vt 0.808694 0.126709
vt 0.410626 0.794631
vt 0.205824 0.807431
vt 0.410626 0.820231
vt 0.205824 0.820231
vt 0.999659 0.695167
vt 0.892192 0.606971
vt 0.803996 0.714438
vt 0.205143 0.025941
vt 0.205143 0.115542
vt 0.205143 0.192343
vt 0.205143 0.217943
vt 0.205143 0.256343
vt 0.205143 0.281944
vt 0.205143 0.371545
vt 0.595836 0.554799
vt 0.585130 0.570822
vt 0.571503 0.584449
vt 0.555480 0.595155
vt 0.537675 0.602530
vt 0.518774 0.606290
vt 0.499503 0.606290
vt 0.480602 0.602530
vt 0.462798 0.595155
vt 0.446775 0.584449
vt 0.433148 0.570822
vt 0.422441 0.554799
vt 0.415067 0.536994
vt 0.411307 0.518093
vt 0.411307 0.498822
vt 0.422441 0.462117
vt 0.433148 0.446094
vt 0.446775 0.432467
vt 0.462798 0.421760
vt 0.480602 0.414386
vt 0.499503 0.410626
vt 0.518774 0.410626
vt 0.555480 0.421761
vt 0.571503 0.432467
vt 0.585130 0.446094
vt 0.595836 0.462117
vt 0.603211 0.479921
vt 0.606971 0.498822
vt 0.606971 0.518094
vt 0.205143 0.409945
vt 0.620550 0.323053
vt 0.627925 0.340857
vt 0.638631 0.356881
vt 0.652258 0.370508
vt 0.668281 0.381214
vt 0.686086 0.388589
vt 0.704986 0.392348
vt 0.724258 0.392348
vt 0.743159 0.388589
vt 0.760963 0.381214
vt 0.776986 0.370508
vt 0.790613 0.356881
vt 0.801319 0.340857
vt 0.808694 0.323053
vt 0.812454 0.304152
vt 0.808694 0.265980
vt 0.801319 0.248176
vt 0.790613 0.232153
vt 0.776986 0.218526
vt 0.760963 0.207819
vt 0.743159 0.200445
vt 0.724258 0.196685
vt 0.686086 0.200445
vt 0.668281 0.207819
vt 0.652258 0.218526
vt 0.638631 0.232153
vt 0.627925 0.248176
vt 0.620550 0.265980
vt 0.616790 0.284881
vt 0.595836 0.751143
vt 0.585130 0.767167
vt 0.571503 0.780793
vt 0.555479 0.791500
vt 0.537675 0.798875
vt 0.518774 0.802634
vt 0.499503 0.802634
vt 0.480602 0.798875
vt 0.462798 0.791500
vt 0.446775 0.780793
vt 0.433148 0.767166
vt 0.422441 0.751143
vt 0.415067 0.733339
vt 0.411307 0.714438
vt 0.411307 0.695167
vt 0.422441 0.658462
vt 0.433148 0.642438
vt 0.446775 0.628811
vt 0.462798 0.618105
vt 0.480602 0.610730
vt 0.499503 0.606971
vt 0.518774 0.606971
vt 0.555480 0.618105
vt 0.571503 0.628812
vt 0.585130 0.642438
vt 0.595836 0.658462
vt 0.603211 0.676266
vt 0.606971 0.695167
vt 0.606971 0.714438
vt 0.410626 0.409945
vt 0.415067 0.929683
vt 0.422441 0.947488
vt 0.433148 0.963511
vt 0.446775 0.977138
vt 0.462798 0.987844
vt 0.480602 0.995219
vt 0.499503 0.998979
vt 0.518774 0.998979
vt 0.537675 0.995219
vt 0.555480 0.987844
vt 0.571503 0.977138
vt 0.585130 0.963511
vt 0.595836 0.947487
vt 0.603211 0.929683
vt 0.606971 0.910782
vt 0.603211 0.872610
vt 0.595836 0.854806
vt 0.585130 0.838783
vt 0.571503 0.825156
vt 0.555479 0.814449
vt 0.537675 0.807075
vt 0.518774 0.803315
vt 0.480602 0.807075
vt 0.462798 0.814449
vt 0.446775 0.825156
vt 0.433148 0.838783
vt 0.422441 0.854806
vt 0.415067 0.872610
vt 0.411307 0.891511
vt 0.616109 0.294744
vt 0.792181 0.554799
vt 0.781474 0.570822
vt 0.767847 0.584449
vt 0.751824 0.595155
vt 0.734020 0.602530
vt 0.715119 0.606290
vt 0.695848 0.606290
vt 0.676947 0.602530
vt 0.659143 0.595155
vt 0.643119 0.584449
vt 0.629492 0.570822
vt 0.618786 0.554799
vt 0.611411 0.536994
vt 0.607652 0.518093
vt 0.607652 0.498822
vt 0.618786 0.462117
vt 0.629492 0.446094
vt 0.643119 0.432467
vt 0.659143 0.421760
vt 0.676947 0.414386
vt 0.695848 0.410626
vt 0.715119 0.410626
vt 0.751824 0.421761
vt 0.767847 0.432467
vt 0.781474 0.446094
vt 0.792181 0.462117
vt 0.799555 0.479921
vt 0.803315 0.498822
vt 0.803315 0.518094
vt 0.616109 0.409945
vt 0.611411 0.929683
vt 0.618786 0.947487
vt 0.629492 0.963511
vt 0.643119 0.977138
vt 0.659143 0.987844
vt 0.676947 0.995219
vt 0.695848 0.998978
vt 0.715119 0.998978
vt 0.734020 0.995219
vt 0.751824 0.987844
vt 0.767847 0.977138
vt 0.781474 0.963511
vt 0.792181 0.947487
vt 0.799555 0.929683
vt 0.803315 0.910782
vt 0.799555 0.872610
vt 0.792181 0.854806
vt 0.781474 0.838783
vt 0.767847 0.825156
vt 0.751824 0.814449
vt 0.734020 0.807075
vt 0.715119 0.803315
vt 0.676947 0.807075
vt 0.659142 0.814449
vt 0.643119 0.825156
vt 0.629492 0.838783
vt 0.618786 0.854806
vt 0.611411 0.872610
vt 0.607651 0.891511
vt 0.205143 0.449027
vt 0.205143 0.525827
vt 0.205143 0.564228
vt 0.205143 0.602628
vt 0.205143 0.628229
vt 0.205143 0.653829
vt 0.205143 0.730630
vt 0.205143 0.769030
vt 0.792181 0.751143
vt 0.781474 0.767167
vt 0.767847 0.780793
vt 0.751824 0.791500
vt 0.734020 0.798875
vt 0.715119 0.802634
vt 0.695848 0.802634
vt 0.676947 0.798875
vt 0.659143 0.791500
vt 0.643119 0.780793
vt 0.629492 0.767167
vt 0.618786 0.751143
vt 0.611411 0.733339
vt 0.607652 0.714438
vt 0.607652 0.695167
vt 0.618786 0.658462
vt 0.629492 0.642438
vt 0.643119 0.628812
vt 0.659143 0.618105
vt 0.676947 0.610730
vt 0.695848 0.606971
vt 0.715119 0.606971
vt 0.751824 0.618105
vt 0.767847 0.628812
vt 0.781474 0.642438
vt 0.792181 0.658462
vt 0.799555 0.676266
vt 0.803315 0.695167
vt 0.803315 0.714438
vt 0.205143 0.820231
vt 0.807756 0.536994
vt 0.815130 0.554799
vt 0.825837 0.570822
vt 0.839464 0.584449
vt 0.855487 0.595155
vt 0.873291 0.602530
vt 0.892192 0.606290
vt 0.911463 0.606290
vt 0.930364 0.602530
vt 0.948168 0.595155
vt 0.964192 0.584449
vt 0.977819 0.570822
vt 0.988525 0.554799
vt 0.995900 0.536994
vt 0.999659 0.518093
vt 0.995900 0.479921
vt 0.988525 0.462117
vt 0.977819 0.446094
vt 0.964192 0.432467
vt 0.948168 0.421760
vt 0.930364 0.414386
vt 0.911463 0.410626
vt 0.873291 0.414386
vt 0.855487 0.421760
vt 0.839464 0.432467
vt 0.825837 0.446094
vt 0.815130 0.462117
vt 0.807756 0.479921
vt 0.803996 0.498822
vt 0.410626 0.410626
vt 0.410626 0.449027
vt 0.410626 0.474627
vt 0.410626 0.564228
vt 0.410626 0.602628
vt 0.410626 0.628229
vt 0.410626 0.653829
vt 0.410626 0.705029
vt 0.410626 0.743430
vt 0.410626 0.769030
vt 0.801319 0.144513
vt 0.790613 0.160536
vt 0.776986 0.174163
vt 0.760963 0.184870
vt 0.743159 0.192244
vt 0.724258 0.196004
vt 0.704987 0.196004
vt 0.686086 0.192244
vt 0.668281 0.184870
vt 0.652258 0.174163
vt 0.638631 0.160536
vt 0.627925 0.144513
vt 0.620550 0.126709
vt 0.616790 0.107808
vt 0.616790 0.088537
vt 0.627925 0.051832
vt 0.638631 0.035808
vt 0.652258 0.022181
vt 0.668281 0.011475
vt 0.686086 0.004100
vt 0.704987 0.000340
vt 0.724258 0.000340
vt 0.760963 0.011475
vt 0.776986 0.022181
vt 0.790613 0.035808
vt 0.801319 0.051832
vt 0.808694 0.069636
vt 0.812454 0.088537
vt 0.812454 0.107808
vt 0.410626 0.807431
vt 0.807756 0.733339
vt 0.815130 0.751143
vt 0.825837 0.767166
vt 0.839464 0.780793
vt 0.855487 0.791500
vt 0.873291 0.798874
vt 0.892192 0.802634
vt 0.911463 0.802634
vt 0.930364 0.798874
vt 0.948168 0.791500
vt 0.964192 0.780793
vt 0.977819 0.767166
vt 0.988525 0.751143
vt 0.995900 0.733339
vt 0.999659 0.714438
vt 0.995900 0.676266
vt 0.988525 0.658462
vt 0.977819 0.642438
vt 0.964192 0.628811
vt 0.948168 0.618105
vt 0.930364 0.610730
vt 0.911463 0.606971
vt 0.873291 0.610730
vt 0.855487 0.618105
vt 0.839464 0.628811
vt 0.825837 0.642438
vt 0.815130 0.658462
vt 0.807756 0.676266
vt 0.803996 0.695167
s 0
usemtl マテリアル.002
f 2/1/1 3/2/1 1/3/1
f 4/4/2 5/5/2 3/2/2
f 5/5/3 8/6/3 7/7/3
f 7/7/4 10/8/4 9/9/4
f 9/9/5 12/10/5 11/11/5
f 11/11/6 14/12/6 13/13/6
f 13/13/7 16/14/7 15/15/7
f 16/14/8 17/16/8 15/15/8
f 18/17/9 19/18/9 17/16/9
f 19/18/10 22/19/10 21/20/10
f 21/20/11 24/21/11 23/22/11
f 23/22/12 26/23/12 25/24/12
f 25/24/13 28/25/13 27/26/13
f 27/26/14 30/27/14 29/28/14
f 30/27/15 31/29/15 29/28/15
f 31/29/16 34/30/16 33/31/16
f 34/30/17 35/32/17 33/31/17
f 35/32/18 38/33/18 37/34/18
f 38/33/19 39/35/19 37/34/19
f 40/36/20 41/37/20 39/35/20
f 41/37/21 44/38/21 43/39/21
f 44/38/22 45/40/22 43/39/22
f 45/40/23 48/41/23 47/42/23
f 47/42/24 50/43/24 49/44/24
f 50/43/25 51/45/25 49/44/25
f 52/46/26 53/47/26 51/45/26
f 54/48/27 55/49/27 53/47/27
f 56/50/28 57/51/28 55/49/28
f 58/52/29 59/53/29 57/51/29
f 59/53/30 62/54/30 61/55/30
f 38/56/31 22/57/31 6/58/31
f 62/54/32 63/59/32 61/55/32
f 64/60/33 1/61/33 63/59/33
f 31/62/34 47/63/34 63/64/34
f 66/65/35 67/66/35 65/67/35
f 68/68/36 69/69/36 67/66/36
f 70/70/37 71/71/37 69/69/37
f 72/72/38 73/73/38 71/71/38
f 74/74/39 75/75/39 73/73/39
f 76/76/40 77/77/40 75/75/40
f 78/78/41 79/79/41 77/77/41
f 80/80/42 81/81/42 79/79/42
f 82/82/43 83/83/43 81/81/43
f 84/84/44 85/85/44 83/83/44
f 86/86/45 87/87/45 85/85/45
f 88/88/46 89/89/46 87/87/46
f 90/90/47 91/91/47 89/89/47
f 92/92/48 93/93/48 91/91/48
f 94/94/49 95/95/49 93/93/49
f 96/96/50 97/97/50 95/95/50
f 98/98/51 99/99/51 97/97/51
f 100/100/52 101/101/52 99/99/52
f 102/102/53 103/103/53 101/101/53
f 104/104/54 105/105/54 103/103/54
f 106/106/55 107/107/55 105/105/55
f 108/108/56 109/109/56 107/107/56
f 110/110/57 111/111/57 109/109/57
f 112/112/58 113/113/58 111/111/58
f 114/114/59 115/115/59 113/113/59
f 116/116/60 117/117/60 115/115/60
f 118/118/61 119/119/61 117/117/61
f 120/120/62 121/121/62 119/119/62
f 122/122/63 123/123/63 121/121/63
f 124/124/64 125/125/64 123/123/64
f 102/126/31 86/127/31 70/128/31
f 126/129/65 127/130/65 125/125/65
f 128/131/66 65/132/66 127/130/66
f 95/133/34 111/134/34 127/135/34
f 130/136/67 131/137/67 129/138/67
f 132/139/68 133/140/68 131/137/68
f 134/141/69 135/142/69 133/140/69
f 136/143/70 137/144/70 135/142/70
f 138/145/71 139/146/71 137/144/71
f 140/147/72 141/148/72 139/146/72
f 142/149/73 143/150/73 141/148/73
f 144/151/74 145/152/74 143/150/74
f 146/153/75 147/154/75 145/152/75
f 148/155/76 149/156/76 147/154/76
f 150/157/77 151/158/77 149/156/77
f 152/159/78 153/160/78 151/158/78
f 154/161/79 155/162/79 153/160/79
f 156/163/80 157/164/80 155/162/80
f 158/165/81 159/166/81 157/164/81
f 160/167/82 161/168/82 159/166/82
f 162/169/83 163/170/83 161/168/83
f 164/171/84 165/172/84 163/170/84
f 166/173/85 167/174/85 165/172/85
f 168/175/86 169/176/86 167/174/86
f 170/177/87 171/178/87 169/176/87
f 172/179/88 173/180/88 171/178/88
f 174/181/89 175/182/89 173/180/89
f 175/182/90 178/183/90 177/184/90
f 178/183/91 179/185/91 177/184/91
f 180/186/92 181/187/92 179/185/92
f 182/188/93 183/189/93 181/187/93
f 184/190/94 185/191/94 183/189/94
f 186/192/95 187/193/95 185/191/95
f 188/194/96 189/195/96 187/193/96
f 166/196/97 150/197/97 134/198/97
f 190/199/98 191/200/98 189/195/98
f 192/201/99 129/202/99 191/200/99
f 159/203/100 175/204/100 191/205/100
f 194/206/1 195/207/1 193/208/1
f 196/209/2 197/210/2 195/207/2
f 198/211/3 199/212/3 197/210/3
f 199/212/4 202/213/4 201/214/4
f 202/213/5 203/215/5 201/214/5
f 204/216/6 205/217/6 203/215/6
f 206/218/7 207/219/7 205/217/7
f 208/220/101 209/221/101 207/219/101
f 210/222/9 211/223/9 209/221/9
f 211/223/10 214/224/10 213/225/10
f 213/225/11 216/226/11 215/227/11
f 216/226/12 217/228/12 215/227/12
f 217/228/13 220/229/13 219/230/13
f 219/230/14 222/231/14 221/232/14
f 222/231/15 223/233/15 221/232/15
f 223/233/16 226/234/16 225/235/16
f 226/234/17 227/236/17 225/235/17
f 227/236/18 230/237/18 229/238/18
f 230/237/19 231/239/19 229/238/19
f 231/239/20 234/240/20 233/241/20
f 233/241/21 236/242/21 235/243/21
f 235/243/22 238/244/22 237/245/22
f 237/245/23 240/246/23 239/247/23
f 239/247/24 242/248/24 241/249/24
f 242/248/25 243/250/25 241/249/25
f 243/250/26 246/251/26 245/252/26
f 246/251/27 247/253/27 245/252/27
f 248/254/28 249/255/28 247/253/28
f 249/255/29 252/256/29 251/257/29
f 252/256/102 253/258/102 251/257/102
f 230/259/31 214/260/31 198/261/31
f 254/262/32 255/263/32 253/258/32
f 256/264/33 193/265/33 255/263/33
f 223/266/34 239/267/34 255/268/34
f 257/269/1 260/270/1 259/271/1
f 260/270/2 261/272/2 259/271/2
f 262/273/3 263/274/3 261/272/3
f 263/274/4 266/275/4 265/276/4
f 266/275/5 267/277/5 265/276/5
f 267/277/6 270/278/6 269/279/6
f 270/278/7 271/280/7 269/279/7
f 272/281/101 273/282/101 271/280/101
f 274/283/9 275/284/9 273/282/9
f 276/285/10 277/286/10 275/284/10
f 278/287/11 279/288/11 277/286/11
f 280/289/12 281/290/12 279/288/12
f 281/290/13 284/291/13 283/292/13
f 284/291/14 285/293/14 283/292/14
f 286/294/15 287/295/15 285/293/15
f 287/295/16 290/296/16 289/297/16
f 290/296/17 291/298/17 289/297/17
f 291/298/18 294/299/18 293/300/18
f 294/299/19 295/301/19 293/300/19
f 295/301/20 298/302/20 297/303/20
f 297/303/21 300/304/21 299/305/21
f 299/305/22 302/306/22 301/307/22
f 302/306/23 303/308/23 301/307/23
f 303/308/24 306/309/24 305/310/24
f 306/309/25 307/311/25 305/310/25
f 308/312/26 309/313/26 307/311/26
f 309/313/27 312/314/27 311/315/27
f 312/314/28 313/316/28 311/315/28
f 313/316/29 316/317/29 315/318/29
f 316/317/102 317/319/102 315/318/102
f 294/320/31 278/321/31 262/322/31
f 318/323/32 319/324/32 317/319/32
f 319/324/33 258/325/33 257/326/33
f 287/327/34 303/328/34 319/329/34
f 2/1/1 4/4/1 3/2/1
f 4/4/2 6/330/2 5/5/2
f 5/5/103 6/330/103 8/6/103
f 7/7/104 8/6/104 10/8/104
f 9/9/5 10/8/5 12/10/5
f 11/11/105 12/10/105 14/12/105
f 13/13/7 14/12/7 16/14/7
f 16/14/101 18/17/101 17/16/101
f 18/17/106 20/331/106 19/18/106
f 19/18/10 20/331/10 22/19/10
f 21/20/107 22/19/107 24/21/107
f 23/22/108 24/21/108 26/23/108
f 25/24/109 26/23/109 28/25/109
f 27/26/14 28/25/14 30/27/14
f 30/27/15 32/332/15 31/29/15
f 31/29/110 32/332/110 34/30/110
f 34/30/111 36/333/111 35/32/111
f 35/32/18 36/333/18 38/33/18
f 38/33/19 40/36/19 39/35/19
f 40/36/112 42/334/112 41/37/112
f 41/37/113 42/334/113 44/38/113
f 44/38/114 46/335/114 45/40/114
f 45/40/23 46/335/23 48/41/23
f 47/42/115 48/41/115 50/43/115
f 50/43/116 52/46/116 51/45/116
f 52/46/26 54/48/26 53/47/26
f 54/48/117 56/50/117 55/49/117
f 56/50/28 58/52/28 57/51/28
f 58/52/118 60/336/118 59/53/118
f 59/53/30 60/336/30 62/54/30
f 6/58/119 4/337/119 2/338/119
f 2/338/119 64/339/119 62/340/119
f 62/340/120 60/341/120 58/342/120
f 58/342/120 56/343/120 54/344/120
f 54/344/31 52/345/31 50/346/31
f 50/346/31 48/347/31 46/348/31
f 46/348/121 44/349/121 42/350/121
f 42/350/121 40/351/121 38/56/121
f 38/56/122 36/352/122 34/353/122
f 34/353/122 32/354/122 30/355/122
f 30/355/121 28/356/121 26/357/121
f 26/357/121 24/358/121 22/57/121
f 22/57/31 20/359/31 18/360/31
f 18/360/31 16/361/31 14/362/31
f 14/362/120 12/363/120 10/364/120
f 10/364/120 8/365/120 6/58/120
f 6/58/31 2/338/31 62/340/31
f 62/340/31 58/342/31 54/344/31
f 54/344/31 50/346/31 46/348/31
f 46/348/31 42/350/31 38/56/31
f 38/56/31 34/353/31 30/355/31
f 30/355/31 26/357/31 22/57/31
f 22/57/31 18/360/31 14/362/31
f 14/362/31 10/364/31 6/58/31
f 6/58/123 62/340/123 54/344/123
f 54/344/31 46/348/31 38/56/31
f 38/56/124 30/355/124 22/57/124
f 22/57/31 14/362/31 6/58/31
f 6/58/31 54/344/31 38/56/31
f 62/54/32 64/60/32 63/59/32
f 64/60/33 2/366/33 1/61/33
f 63/64/34 1/367/34 3/368/34
f 3/368/125 5/369/125 7/370/125
f 7/370/126 9/371/126 11/372/126
f 11/372/34 13/373/34 15/374/34
f 15/374/34 17/375/34 19/376/34
f 19/376/34 21/377/34 23/378/34
f 23/378/125 25/379/125 27/380/125
f 27/380/126 29/381/126 31/62/126
f 31/62/34 33/382/34 35/383/34
f 35/383/126 37/384/126 39/385/126
f 39/385/125 41/386/125 43/387/125
f 43/387/34 45/388/34 47/63/34
f 47/63/34 49/389/34 51/390/34
f 51/390/34 53/391/34 55/392/34
f 55/392/126 57/393/126 59/394/126
f 59/394/125 61/395/125 63/64/125
f 63/64/34 3/368/34 7/370/34
f 7/370/34 11/372/34 15/374/34
f 15/374/34 19/376/34 23/378/34
f 23/378/34 27/380/34 31/62/34
f 31/62/34 35/383/34 39/385/34
f 39/385/34 43/387/34 47/63/34
f 47/63/34 51/390/34 55/392/34
f 55/392/34 59/394/34 63/64/34
f 63/64/34 7/370/34 15/374/34
f 15/374/34 23/378/34 31/62/34
f 31/62/34 39/385/34 47/63/34
f 47/63/34 55/392/34 63/64/34
f 63/64/34 15/374/34 31/62/34
f 66/65/35 68/68/35 67/66/35
f 68/68/36 70/70/36 69/69/36
f 70/70/37 72/72/37 71/71/37
f 72/72/38 74/74/38 73/73/38
f 74/74/39 76/76/39 75/75/39
f 76/76/40 78/78/40 77/77/40
f 78/78/41 80/80/41 79/79/41
f 80/80/42 82/82/42 81/81/42
f 82/82/43 84/84/43 83/83/43
f 84/84/44 86/86/44 85/85/44
f 86/86/45 88/88/45 87/87/45
f 88/88/46 90/90/46 89/89/46
f 90/90/47 92/92/47 91/91/47
f 92/92/48 94/94/48 93/93/48
f 94/94/49 96/96/49 95/95/49
f 96/96/50 98/98/50 97/97/50
f 98/98/51 100/100/51 99/99/51
f 100/100/52 102/102/52 101/101/52
f 102/102/53 104/104/53 103/103/53
f 104/104/54 106/106/54 105/105/54
f 106/106/55 108/108/55 107/107/55
f 108/108/56 110/110/56 109/109/56
f 110/110/57 112/112/57 111/111/57
f 112/112/58 114/114/58 113/113/58
f 114/114/59 116/116/59 115/115/59
f 116/116/60 118/118/60 117/117/60
f 118/118/61 120/120/61 119/119/61
f 120/120/62 122/122/62 121/121/62
f 122/122/63 124/124/63 123/123/63
f 124/124/64 126/129/64 125/125/64
f 70/128/31 68/396/31 66/397/31
f 66/397/31 128/398/31 126/399/31
f 126/399/123 124/400/123 122/401/123
f 122/401/123 120/402/123 118/403/123
f 118/403/31 116/404/31 114/405/31
f 114/405/31 112/406/31 110/407/31
f 110/407/124 108/408/124 106/409/124
f 106/409/124 104/410/124 102/126/124
f 102/126/31 100/411/31 98/412/31
f 98/412/31 96/413/31 94/414/31
f 94/414/124 92/415/124 90/416/124
f 90/416/124 88/417/124 86/127/124
f 86/127/31 84/418/31 82/419/31
f 82/419/31 80/420/31 78/421/31
f 78/421/123 76/422/123 74/423/123
f 74/423/123 72/424/123 70/128/123
f 70/128/31 66/397/31 126/399/31
f 126/399/31 122/401/31 118/403/31
f 118/403/31 114/405/31 110/407/31
f 110/407/31 106/409/31 102/126/31
f 102/126/31 98/412/31 94/414/31
f 94/414/31 90/416/31 86/127/31
f 86/127/31 82/419/31 78/421/31
f 78/421/31 74/423/31 70/128/31
f 70/128/31 126/399/31 118/403/31
f 118/403/31 110/407/31 102/126/31
f 102/126/31 94/414/31 86/127/31
f 86/127/31 78/421/31 70/128/31
f 70/128/31 118/403/31 102/126/31
f 126/129/65 128/131/65 127/130/65
f 128/131/66 66/425/66 65/132/66
f 127/135/34 65/426/34 67/427/34
f 67/427/34 69/428/34 71/429/34
f 71/429/34 73/430/34 75/431/34
f 75/431/34 77/432/34 79/433/34
f 79/433/34 81/434/34 83/435/34
f 83/435/34 85/436/34 87/437/34
f 87/437/34 89/438/34 91/439/34
f 91/439/34 93/440/34 95/133/34
f 95/133/34 97/441/34 99/442/34
f 99/442/34 101/443/34 103/444/34
f 103/444/34 105/445/34 107/446/34
f 107/446/34 109/447/34 111/134/34
f 111/134/34 113/448/34 115/449/34
f 115/449/34 117/450/34 119/451/34
f 119/451/34 121/452/34 123/453/34
f 123/453/34 125/454/34 127/135/34
f 127/135/34 67/427/34 71/429/34
f 71/429/34 75/431/34 79/433/34
f 79/433/34 83/435/34 87/437/34
f 87/437/34 91/439/34 95/133/34
f 95/133/34 99/442/34 103/444/34
f 103/444/34 107/446/34 111/134/34
f 111/134/34 115/449/34 119/451/34
f 119/451/34 123/453/34 127/135/34
f 127/135/34 71/429/34 79/433/34
f 79/433/34 87/437/34 95/133/34
f 95/133/34 103/444/34 111/134/34
f 111/134/34 119/451/34 127/135/34
f 127/135/34 79/433/34 95/133/34
f 130/136/67 132/139/67 131/137/67
f 132/139/68 134/141/68 133/140/68
f 134/141/69 136/143/69 135/142/69
f 136/143/70 138/145/70 137/144/70
f 138/145/71 140/147/71 139/146/71
f 140/147/72 142/149/72 141/148/72
f 142/149/73 144/151/73 143/150/73
f 144/151/74 146/153/74 145/152/74
f 146/153/75 148/155/75 147/154/75
f 148/155/76 150/157/76 149/156/76
f 150/157/77 152/159/77 151/158/77
f 152/159/78 154/161/78 153/160/78
f 154/161/79 156/163/79 155/162/79
f 156/163/80 158/165/80 157/164/80
f 158/165/81 160/167/81 159/166/81
f 160/167/82 162/169/82 161/168/82
f 162/169/83 164/171/83 163/170/83
f 164/171/84 166/173/84 165/172/84
f 166/173/85 168/175/85 167/174/85
f 168/175/86 170/177/86 169/176/86
f 170/177/87 172/179/87 171/178/87
f 172/179/88 174/181/88 173/180/88
f 174/181/89 176/455/89 175/182/89
f 175/182/90 176/455/90 178/183/90
f 178/183/91 180/186/91 179/185/91
f 180/186/92 182/188/92 181/187/92
f 182/188/93 184/190/93 183/189/93
f 184/190/94 186/192/94 185/191/94
f 186/192/95 188/194/95 187/193/95
f 188/194/96 190/199/96 189/195/96
f 134/198/97 132/456/97 130/457/97
f 130/457/97 192/458/97 190/459/97
f 190/459/97 188/460/97 186/461/97
f 186/461/97 184/462/97 182/463/97
f 182/463/97 180/464/97 178/465/97
f 178/465/97 176/466/97 174/467/97
f 174/467/97 172/468/97 170/469/97
f 170/469/97 168/470/97 166/196/97
f 166/196/97 164/471/97 162/472/97
f 162/472/97 160/473/97 158/474/97
f 158/474/97 156/475/97 154/476/97
f 154/476/97 152/477/97 150/197/97
f 150/197/97 148/478/97 146/479/97
f 146/479/97 144/480/97 142/481/97
f 142/481/97 140/482/97 138/483/97
f 138/483/97 136/484/97 134/198/97
f 134/198/97 130/457/97 190/459/97
f 190/459/97 186/461/97 182/463/97
f 182/463/97 178/465/97 174/467/97
f 174/467/97 170/469/97 166/196/97
f 166/196/97 162/472/97 158/474/97
f 158/474/97 154/476/97 150/197/97
f 150/197/97 146/479/97 142/481/97
f 142/481/97 138/483/97 134/198/97
f 134/198/97 190/459/97 182/463/97
f 182/463/97 174/467/97 166/196/97
f 166/196/97 158/474/97 150/197/97
f 150/197/97 142/481/97 134/198/97
f 134/198/97 182/463/97 166/196/97
f 190/199/98 192/201/98 191/200/98
f 192/201/99 130/485/99 129/202/99
f 191/205/100 129/486/100 131/487/100
f 131/487/100 133/488/100 135/489/100
f 135/489/100 137/490/100 139/491/100
f 139/491/100 141/492/100 143/493/100
f 143/493/100 145/494/100 147/495/100
f 147/495/100 149/496/100 151/497/100
f 151/497/100 153/498/100 155/499/100
f 155/499/100 157/500/100 159/203/100
f 159/203/100 161/501/100 163/502/100
f 163/502/100 165/503/100 167/504/100
f 167/504/100 169/505/100 171/506/100
f 171/506/100 173/507/100 175/204/100
f 175/204/100 177/508/100 179/509/100
f 179/509/100 181/510/100 183/511/100
f 183/511/100 185/512/100 187/513/100
f 187/513/100 189/514/100 191/205/100
f 191/205/100 131/487/100 135/489/100
f 135/489/100 139/491/100 143/493/100
f 143/493/100 147/495/100 151/497/100
f 151/497/100 155/499/100 159/203/100
f 159/203/100 163/502/100 167/504/100
f 167/504/100 171/506/100 175/204/100
f 175/204/100 179/509/100 183/511/100
f 183/511/100 187/513/100 191/205/100
f 191/205/100 135/489/100 143/493/100
f 143/493/100 151/497/100 159/203/100
f 159/203/100 167/504/100 175/204/100
f 175/204/100 183/511/100 191/205/100
f 191/205/100 143/493/100 159/203/100
f 194/206/1 196/209/1 195/207/1
f 196/209/2 198/211/2 197/210/2
f 198/211/103 200/515/103 199/212/103
f 199/212/104 200/515/104 202/213/104
f 202/213/5 204/216/5 203/215/5
f 204/216/105 206/218/105 205/217/105
f 206/218/7 208/220/7 207/219/7
f 208/220/101 210/222/101 209/221/101
f 210/222/106 212/516/106 211/223/106
f 211/223/10 212/516/10 214/224/10
f 213/225/107 214/224/107 216/226/107
f 216/226/108 218/517/108 217/228/108
f 217/228/109 218/517/109 220/229/109
f 219/230/14 220/229/14 222/231/14
f 222/231/15 224/518/15 223/233/15
f 223/233/110 224/518/110 226/234/110
f 226/234/111 228/519/111 227/236/111
f 227/236/18 228/519/18 230/237/18
f 230/237/19 232/520/19 231/239/19
f 231/239/112 232/520/112 234/240/112
f 233/241/113 234/240/113 236/242/113
f 235/243/114 236/242/114 238/244/114
f 237/245/23 238/244/23 240/246/23
f 239/247/115 240/246/115 242/248/115
f 242/248/116 244/521/116 243/250/116
f 243/250/26 244/521/26 246/251/26
f 246/251/117 248/254/117 247/253/117
f 248/254/28 250/522/28 249/255/28
f 249/255/118 250/522/118 252/256/118
f 252/256/30 254/262/30 253/258/30
f 198/261/119 196/523/119 194/524/119
f 194/524/119 256/525/119 254/526/119
f 254/526/120 252/527/120 250/528/120
f 250/528/120 248/529/120 246/530/120
f 246/530/31 244/531/31 242/532/31
f 242/532/31 240/533/31 238/534/31
f 238/534/121 236/535/121 234/536/121
f 234/536/121 232/537/121 230/259/121
f 230/259/122 228/538/122 226/539/122
f 226/539/122 224/540/122 222/541/122
f 222/541/121 220/542/121 218/543/121
f 218/543/121 216/544/121 214/260/121
f 214/260/31 212/545/31 210/546/31
f 210/546/31 208/547/31 206/548/31
f 206/548/120 204/549/120 202/550/120
f 202/550/120 200/551/120 198/261/120
f 198/261/31 194/524/31 254/526/31
f 254/526/31 250/528/31 246/530/31
f 246/530/31 242/532/31 238/534/31
f 238/534/31 234/536/31 230/259/31
f 230/259/31 226/539/31 222/541/31
f 222/541/31 218/543/31 214/260/31
f 214/260/31 210/546/31 206/548/31
f 206/548/31 202/550/31 198/261/31
f 198/261/123 254/526/123 246/530/123
f 246/530/31 238/534/31 230/259/31
f 230/259/124 222/541/124 214/260/124
f 214/260/31 206/548/31 198/261/31
f 198/261/31 246/530/31 230/259/31
f 254/262/32 256/264/32 255/263/32
f 256/264/33 194/552/33 193/265/33
f 255/268/34 193/553/34 195/554/34
f 195/554/125 197/555/125 199/556/125
f 199/556/126 201/557/126 203/558/126
f 203/558/34 205/559/34 207/560/34
f 207/560/34 209/561/34 211/562/34
f 211/562/34 213/563/34 215/564/34
f 215/564/125 217/565/125 219/566/125
f 219/566/126 221/567/126 223/266/126
f 223/266/34 225/568/34 227/569/34
f 227/569/126 229/570/126 231/571/126
f 231/571/125 233/572/125 235/573/125
f 235/573/34 237/574/34 239/267/34
f 239/267/34 241/575/34 243/576/34
f 243/576/34 245/577/34 247/578/34
f 247/578/126 249/579/126 251/580/126
f 251/580/125 253/581/125 255/268/125
f 255/268/34 195/554/34 199/556/34
f 199/556/34 203/558/34 207/560/34
f 207/560/34 211/562/34 215/564/34
f 215/564/34 219/566/34 223/266/34
f 223/266/34 227/569/34 231/571/34
f 231/571/34 235/573/34 239/267/34
f 239/267/34 243/576/34 247/578/34
f 247/578/34 251/580/34 255/268/34
f 255/268/34 199/556/34 207/560/34
f 207/560/34 215/564/34 223/266/34
f 223/266/34 231/571/34 239/267/34
f 239/267/34 247/578/34 255/268/34
f 255/268/34 207/560/34 223/266/34
f 257/269/1 258/582/1 260/270/1
f 260/270/2 262/273/2 261/272/2
f 262/273/103 264/583/103 263/274/103
f 263/274/104 264/583/104 266/275/104
f 266/275/5 268/584/5 267/277/5
f 267/277/105 268/584/105 270/278/105
f 270/278/7 272/281/7 271/280/7
f 272/281/101 274/283/101 273/282/101
f 274/283/106 276/285/106 275/284/106
f 276/285/10 278/287/10 277/286/10
f 278/287/107 280/289/107 279/288/107
f 280/289/108 282/585/108 281/290/108
f 281/290/109 282/585/109 284/291/109
f 284/291/14 286/294/14 285/293/14
f 286/294/15 288/586/15 287/295/15
f 287/295/16 288/586/16 290/296/16
f 290/296/17 292/587/17 291/298/17
f 291/298/18 292/587/18 294/299/18
f 294/299/19 296/588/19 295/301/19
f 295/301/112 296/588/112 298/302/112
f 297/303/113 298/302/113 300/304/113
f 299/305/114 300/304/114 302/306/114
f 302/306/23 304/589/23 303/308/23
f 303/308/115 304/589/115 306/309/115
f 306/309/116 308/312/116 307/311/116
f 308/312/26 310/590/26 309/313/26
f 309/313/117 310/590/117 312/314/117
f 312/314/28 314/591/28 313/316/28
f 313/316/118 314/591/118 316/317/118
f 316/317/30 318/323/30 317/319/30
f 262/322/119 260/592/119 258/593/119
f 258/593/119 320/594/119 318/595/119
f 318/595/120 316/596/120 314/597/120
f 314/597/120 312/598/120 310/599/120
f 310/599/31 308/600/31 306/601/31
f 306/601/31 304/602/31 302/603/31
f 302/603/121 300/604/121 298/605/121
f 298/605/121 296/606/121 294/320/121
f 294/320/122 292/607/122 290/608/122
f 290/608/122 288/609/122 286/610/122
f 286/610/121 284/611/121 282/612/121
f 282/612/121 280/613/121 278/321/121
f 278/321/31 276/614/31 274/615/31
f 274/615/31 272/616/31 270/617/31
f 270/617/120 268/618/120 266/619/120
f 266/619/120 264/620/120 262/322/120
f 262/322/31 258/593/31 318/595/31
f 318/595/31 314/597/31 310/599/31
f 310/599/31 306/601/31 302/603/31
f 302/603/31 298/605/31 294/320/31
f 294/320/31 290/608/31 286/610/31
f 286/610/31 282/612/31 278/321/31
f 278/321/31 274/615/31 270/617/31
f 270/617/31 266/619/31 262/322/31
f 262/322/123 318/595/123 310/599/123
f 310/599/31 302/603/31 294/320/31
f 294/320/124 286/610/124 278/321/124
f 278/321/31 270/617/31 262/322/31
f 262/322/31 310/599/31 294/320/31
f 318/323/32 320/621/32 319/324/32
f 319/324/33 320/621/33 258/325/33
f 319/329/34 257/622/34 259/623/34
f 259/623/125 261/624/125 263/625/125
f 263/625/126 265/626/126 267/627/126
f 267/627/34 269/628/34 271/629/34
f 271/629/34 273/630/34 275/631/34
f 275/631/34 277/632/34 279/633/34
f 279/633/125 281/634/125 283/635/125
f 283/635/126 285/636/126 287/327/126
f 287/327/34 289/637/34 291/638/34
f 291/638/126 293/639/126 295/640/126
f 295/640/125 297/641/125 299/642/125
f 299/642/34 301/643/34 303/328/34
f 303/328/34 305/644/34 307/645/34
f 307/645/34 309/646/34 311/647/34
f 311/647/126 313/648/126 315/649/126
f 315/649/125 317/650/125 319/329/125
f 319/329/34 259/623/34 263/625/34
f 263/625/34 267/627/34 271/629/34
f 271/629/34 275/631/34 279/633/34
f 279/633/34 283/635/34 287/327/34
f 287/327/34 291/638/34 295/640/34
f 295/640/34 299/642/34 303/328/34
f 303/328/34 307/645/34 311/647/34
f 311/647/34 315/649/34 319/329/34
f 319/329/34 263/625/34 271/629/34
f 271/629/34 279/633/34 287/327/34
f 287/327/34 295/640/34 303/328/34
f 303/328/34 311/647/34 319/329/34
f 319/329/34 271/629/34 287/327/34
