# Blender 4.1.1
# www.blender.org
mtllib enemybody.mtl
o 立方体.003
v 0.322848 0.627595 0.132755
v 0.322848 0.308983 0.132755
v 0.322848 0.308983 -0.132755
v 0.322848 0.627595 -0.132755
v 0.561807 0.627595 0.132755
v 0.561807 0.308983 0.132755
v 0.561807 0.308983 -0.132755
v 0.561807 0.627595 -0.132755
v 0.322848 0.547942 -0.265510
v 0.641460 0.547942 0.132755
v 0.641460 0.547942 -0.132755
v 0.561807 0.547942 0.265510
v 0.322848 0.547942 0.265510
v 0.322848 0.547942 0.132755
v 0.322848 0.547942 -0.132755
v 0.561807 0.547942 -0.265510
v 0.322848 0.388636 0.265510
v 0.322848 0.388636 0.132755
v 0.322848 0.388636 -0.132755
v 0.561807 0.388636 -0.265510
v 0.322848 0.388636 -0.265510
v 0.641460 0.388636 0.132755
v 0.641460 0.388636 -0.132755
v 0.561807 0.388636 0.265510
v 0.398265 0.747075 0.531020
v 0.398265 0.747075 -0.531020
v -0.398265 0.747075 -0.531020
v -0.398265 0.747075 0.531020
v 0.398265 0.189503 -0.531020
v 0.398265 0.189503 0.531020
v -0.398265 0.189503 -0.531020
v -0.398265 0.189503 0.531020
v 0.398265 0.096575 -0.398265
v 0.398265 0.840003 -0.398265
v -0.398265 0.840003 -0.398265
v -0.398265 0.096575 -0.398265
v -0.531020 0.747075 -0.398265
v -0.531020 0.189503 -0.398265
v 0.531020 0.747075 -0.398265
v 0.531020 0.189503 -0.398265
v 0.531020 0.747075 0.398265
v 0.531020 0.189503 0.398265
v 0.398265 0.096575 0.398265
v 0.398265 0.840003 0.398265
v -0.398265 0.840003 0.398265
v -0.398265 0.096575 0.398265
v -0.531020 0.747075 0.398265
v -0.531020 0.189503 0.398265
v -0.212408 0.651759 0.106204
v 0.212408 0.651759 0.106204
v 0.212408 0.651759 -0.106204
v -0.212408 0.651759 -0.106204
v -0.212408 0.890718 0.106204
v 0.212408 0.890718 0.106204
v 0.212408 0.890718 -0.106204
v -0.212408 0.890718 -0.106204
v -0.106204 0.651759 -0.212408
v -0.106204 0.970371 0.106204
v -0.106204 0.970371 -0.106204
v -0.106204 0.890718 0.212408
v -0.106204 0.651759 0.212408
v -0.106204 0.651759 0.106204
v -0.106204 0.651759 -0.106204
v -0.106204 0.890718 -0.212408
v 0.106204 0.651759 0.212408
v 0.106204 0.651759 0.106204
v 0.106204 0.651759 -0.106204
v 0.106204 0.890718 -0.212408
v 0.106204 0.651759 -0.212408
v 0.106204 0.970371 0.106204
v 0.106204 0.970371 -0.106204
v 0.106204 0.890718 0.212408
v -0.322848 0.308983 0.132755
v -0.322848 0.627595 0.132755
v -0.322848 0.627595 -0.132755
v -0.322848 0.308983 -0.132755
v -0.561807 0.308983 0.132755
v -0.561807 0.627595 0.132755
v -0.561807 0.627595 -0.132755
v -0.561807 0.308983 -0.132755
v -0.322848 0.388636 -0.265510
v -0.641460 0.388636 0.132755
v -0.641460 0.388636 -0.132755
v -0.561807 0.388636 0.265510
v -0.322848 0.388636 0.265510
v -0.322848 0.388636 0.132755
v -0.322848 0.388636 -0.132755
v -0.561807 0.388636 -0.265510
v -0.322848 0.547942 0.265510
v -0.322848 0.547942 0.132755
v -0.322848 0.547942 -0.132755
v -0.561807 0.547942 -0.265510
v -0.322848 0.547942 -0.265510
v -0.641460 0.547942 0.132755
v -0.641460 0.547942 -0.132755
v -0.561807 0.547942 0.265510
vn -0.0000 0.8575 0.5145
vn -1.0000 -0.0000 -0.0000
vn -0.0000 -0.8575 -0.5145
vn -0.0000 -0.0000 -1.0000
vn 0.6509 0.6509 0.3906
vn 0.7071 -0.7071 -0.0000
vn 0.6509 -0.6509 -0.3906
vn 0.7071 0.7071 -0.0000
vn 0.8575 -0.0000 0.5145
vn 1.0000 -0.0000 -0.0000
vn 0.8575 -0.0000 -0.5145
vn -0.0000 1.0000 -0.0000
vn -0.0000 -0.8575 0.5145
vn -0.0000 0.8575 -0.5145
vn 0.6509 0.6509 -0.3906
vn -0.0000 -1.0000 -0.0000
vn -0.0000 -0.0000 1.0000
vn 0.6509 -0.6509 0.3906
vn 0.7071 -0.0000 -0.7071
vn -0.0000 0.8192 0.5735
vn 0.7071 -0.0000 0.7071
vn -0.7071 -0.0000 0.7071
vn 0.4975 0.7107 0.4975
vn -0.0000 -0.8192 -0.5735
vn -0.0000 -0.8192 0.5735
vn -0.4975 -0.7107 0.4975
vn 0.4975 -0.7107 0.4975
vn -0.4975 0.7107 0.4975
vn 0.5735 -0.8192 -0.0000
vn -0.5735 0.8192 -0.0000
vn 0.4975 0.7107 -0.4975
vn -0.4975 -0.7107 -0.4975
vn -0.5735 -0.8192 -0.0000
vn -0.4975 0.7107 -0.4975
vn -0.0000 0.8192 -0.5735
vn -0.7071 -0.0000 -0.7071
vn 0.4975 -0.7107 -0.4975
vn 0.5735 0.8192 -0.0000
vn -0.5145 0.6860 0.5145
vn 0.6000 0.8000 -0.0000
vn 0.5145 0.6860 -0.5145
vn -0.6000 0.8000 -0.0000
vn -0.0000 0.8000 0.6000
vn -0.0000 0.8000 -0.6000
vn -0.5145 0.6860 -0.5145
vn 0.5145 0.6860 0.5145
vn -0.6509 -0.6509 0.3906
vn -0.7071 0.7071 -0.0000
vn -0.6509 0.6509 -0.3906
vn -0.7071 -0.7071 -0.0000
vn -0.8575 -0.0000 0.5145
vn -0.8575 -0.0000 -0.5145
vn -0.6509 -0.6509 -0.3906
vn -0.6509 0.6509 0.3906
vt 0.243394 0.238650
vt 0.277461 0.167838
vt 0.276900 0.238915
vt 0.179950 0.150313
vt 0.196571 0.167199
vt 0.163065 0.166934
vt 0.163814 0.072164
vt 0.116242 0.095482
vt 0.116429 0.071790
vt 0.115118 0.237636
vt 0.082174 0.166295
vt 0.115680 0.166559
vt 0.162503 0.238011
vt 0.243955 0.167573
vt 0.260841 0.150953
vt 0.034976 0.142228
vt 0.034789 0.165920
vt 0.259917 0.267800
vt 0.034227 0.236997
vt 0.081347 0.270878
vt 0.033962 0.270503
vt 0.098136 0.266521
vt 0.081612 0.237372
vt 0.196009 0.238276
vt 0.243129 0.272157
vt 0.195744 0.271782
vt 0.161863 0.318902
vt 0.114214 0.352033
vt 0.114479 0.318527
vt 0.114853 0.271143
vt 0.162238 0.271517
vt 0.163252 0.143242
vt 0.115867 0.142867
vt 0.000721 0.236732
vt 0.196758 0.143506
vt 0.244143 0.143881
vt 0.179026 0.267161
vt 0.099059 0.149674
vt 0.001283 0.165655
vt 0.018168 0.149035
vt 0.116991 0.000713
vt 0.163626 0.095857
vt 0.017245 0.265882
vt 0.519108 0.713817
vt 0.472290 0.548180
vt 0.518340 0.547967
vt 0.047921 0.715997
vt 0.285018 0.751307
vt 0.048089 0.752404
vt 0.330133 0.548838
vt 0.284849 0.714901
vt 0.284082 0.549051
vt 0.001103 0.550360
vt 0.001870 0.716210
vt 0.330900 0.714688
vt 0.297198 0.749150
vt 0.755100 0.510465
vt 0.518172 0.511561
vt 0.047153 0.550147
vt 0.046985 0.513741
vt 0.283913 0.512645
vt 0.034805 0.515899
vt 0.296113 0.514690
vt 0.035889 0.750359
vt 0.472067 0.499979
vt 0.329910 0.500637
vt 0.755269 0.546871
vt 0.469757 0.000798
vt 0.327823 0.049657
vt 0.327600 0.001455
vt 0.507077 0.748179
vt 0.473057 0.714030
vt 0.767300 0.512510
vt 0.801320 0.546658
vt 0.328590 0.215507
vt 0.469980 0.048999
vt 0.470748 0.214849
vt 0.328813 0.263708
vt 0.331123 0.762889
vt 0.474376 0.999160
vt 0.332219 0.999818
vt 0.802087 0.712508
vt 0.768385 0.746970
vt 0.756036 0.712721
vt 0.519276 0.750224
vt 0.756205 0.749127
vt 0.505992 0.513719
vt 0.473280 0.762232
vt 0.886437 0.408941
vt 0.922685 0.337558
vt 0.923277 0.408635
vt 0.820714 0.322153
vt 0.847938 0.338180
vt 0.811098 0.338487
vt 0.810467 0.262672
vt 0.747445 0.282151
vt 0.747287 0.263197
vt 0.747919 0.339013
vt 0.711671 0.410397
vt 0.711079 0.339320
vt 0.811690 0.409564
vt 0.885845 0.337864
vt 0.912798 0.321386
vt 0.672908 0.308046
vt 0.673171 0.339635
vt 0.913764 0.437447
vt 0.673763 0.410712
vt 0.712000 0.449884
vt 0.674092 0.450199
vt 0.748510 0.410090
vt 0.738998 0.438902
vt 0.848530 0.409257
vt 0.886766 0.448428
vt 0.848858 0.448744
vt 0.812258 0.477812
vt 0.749331 0.508679
vt 0.749079 0.478338
vt 0.748763 0.440431
vt 0.811943 0.439905
vt 0.810940 0.319533
vt 0.747761 0.320059
vt 0.636332 0.339942
vt 0.847675 0.306590
vt 0.885582 0.306275
vt 0.821681 0.438214
vt 0.738032 0.322841
vt 0.645948 0.323608
vt 0.746696 0.192121
vt 0.810625 0.281625
vt 0.646914 0.439669
vt 0.636923 0.411019
vt 0.506791 0.114581
vt 0.472785 0.185423
vt 0.473284 0.114345
vt 0.570311 0.202862
vt 0.553676 0.185992
vt 0.587182 0.186227
vt 0.586516 0.280997
vt 0.634068 0.257638
vt 0.633901 0.281330
vt 0.635067 0.115483
vt 0.668074 0.186796
vt 0.634567 0.186560
vt 0.587682 0.115150
vt 0.506291 0.185658
vt 0.489420 0.202294
vt 0.715292 0.210822
vt 0.715459 0.187129
vt 0.490242 0.085446
vt 0.715959 0.116051
vt 0.668809 0.082212
vt 0.716194 0.082545
vt 0.652024 0.086583
vt 0.668573 0.115718
vt 0.554176 0.114914
vt 0.507026 0.081075
vt 0.554411 0.081408
vt 0.588251 0.034258
vt 0.635871 0.001085
vt 0.635636 0.034591
vt 0.635303 0.081976
vt 0.587918 0.081643
vt 0.587016 0.209920
vt 0.634401 0.210253
vt 0.749465 0.116287
vt 0.553510 0.209684
vt 0.506124 0.209351
vt 0.571133 0.086014
vt 0.651203 0.203431
vt 0.748965 0.187365
vt 0.732094 0.204000
vt 0.633402 0.352408
vt 0.586683 0.257305
vt 0.732916 0.087152
vt 0.082361 0.142602
vt 0.161599 0.352408
vt 0.164375 0.001087
vt 0.470971 0.263050
vt 0.710816 0.307730
vt 0.812511 0.508153
vt 0.809875 0.191595
vt 0.667907 0.210488
vt 0.588486 0.000752
vt 0.586016 0.352075
s 0
usemtl マテリアル
f 5/1/1 13/2/1 12/3/1
f 15/4/2 4/5/2 9/6/2
f 13/7/2 18/8/2 17/9/2
f 20/10/3 3/11/3 21/12/3
f 16/13/4 21/12/4 9/6/4
f 13/2/2 1/14/2 14/15/2
f 18/16/2 3/11/2 2/17/2
f 10/18/5 5/1/5 12/3/5
f 6/19/6 23/20/6 22/21/6
f 20/10/7 23/22/7 7/23/7
f 8/24/8 10/25/8 11/26/8
f 10/27/9 24/28/9 22/29/9
f 23/30/10 10/27/10 22/29/10
f 20/10/11 11/31/11 23/30/11
f 15/32/2 21/12/2 19/33/2
f 8/24/12 1/14/12 5/1/12
f 24/34/13 2/17/13 6/19/13
f 16/13/14 4/5/14 8/24/14
f 1/14/2 15/35/2 14/36/2
f 11/37/15 16/13/15 8/24/15
f 3/11/2 19/38/2 21/12/2
f 6/19/16 3/11/16 7/23/16
f 17/39/2 18/40/2 2/17/2
f 24/41/17 13/7/17 17/9/17
f 15/32/2 18/8/2 14/42/2
f 22/43/18 24/34/18 6/19/18
f 26/44/19 40/45/19 29/46/19
f 28/47/20 44/48/20 45/49/20
f 42/50/21 25/51/21 30/52/21
f 48/53/22 28/47/22 47/54/22
f 41/55/23 44/56/23 25/51/23
f 36/57/24 29/46/24 33/58/24
f 30/52/17 28/47/17 32/59/17
f 30/52/25 46/60/25 43/61/25
f 32/59/26 48/53/26 46/62/26
f 42/50/27 30/52/27 43/63/27
f 28/47/28 45/64/28 47/54/28
f 40/45/10 41/55/10 42/50/10
f 33/65/29 42/50/29 43/66/29
f 31/67/4 26/44/4 29/46/4
f 35/68/30 47/69/30 45/70/30
f 34/71/31 39/72/31 26/44/31
f 36/73/32 38/74/32 31/67/32
f 48/75/2 37/76/2 38/77/2
f 46/78/16 33/65/16 43/66/16
f 44/79/12 35/80/12 45/81/12
f 38/77/33 46/78/33 48/75/33
f 37/82/34 35/83/34 27/84/34
f 34/85/35 27/84/35 35/86/35
f 27/84/36 38/74/36 37/82/36
f 29/46/37 40/45/37 33/87/37
f 34/88/38 41/55/38 39/72/38
f 53/89/22 61/90/22 60/91/22
f 63/92/16 52/93/16 57/94/16
f 61/95/16 66/96/16 65/97/16
f 69/98/19 55/99/19 51/100/19
f 64/101/4 69/98/4 57/94/4
f 61/90/16 49/102/16 62/103/16
f 66/104/16 51/100/16 50/105/16
f 58/106/39 53/89/39 60/91/39
f 54/107/40 71/108/40 70/109/40
f 68/110/41 71/111/41 55/99/41
f 56/112/42 58/113/42 59/114/42
f 58/115/43 72/116/43 70/117/43
f 71/118/12 58/115/12 70/117/12
f 68/110/44 59/119/44 71/118/44
f 63/120/16 69/98/16 67/121/16
f 56/112/2 49/102/2 53/89/2
f 54/107/21 65/122/21 50/105/21
f 64/101/36 52/93/36 56/112/36
f 49/102/16 63/123/16 62/124/16
f 59/125/45 64/101/45 56/112/45
f 51/100/16 67/126/16 69/98/16
f 54/107/10 51/100/10 55/99/10
f 65/122/16 66/127/16 50/105/16
f 72/128/17 61/95/17 65/97/17
f 63/120/16 66/96/16 62/129/16
f 70/130/46 72/131/46 54/107/46
f 77/132/13 85/133/13 84/134/13
f 87/135/10 76/136/10 81/137/10
f 85/138/10 90/139/10 89/140/10
f 92/141/14 75/142/14 93/143/14
f 88/144/4 93/143/4 81/137/4
f 85/133/10 73/145/10 86/146/10
f 90/147/10 75/142/10 74/148/10
f 82/149/47 77/132/47 84/134/47
f 78/150/48 95/151/48 94/152/48
f 92/141/49 95/153/49 79/154/49
f 80/155/50 82/156/50 83/157/50
f 82/158/51 96/159/51 94/160/51
f 95/161/2 82/158/2 94/160/2
f 92/141/52 83/162/52 95/161/52
f 87/163/10 93/143/10 91/164/10
f 80/155/16 73/145/16 77/132/16
f 96/165/1 74/148/1 78/150/1
f 88/144/3 76/136/3 80/155/3
f 73/145/10 87/166/10 86/167/10
f 83/168/53 88/144/53 80/155/53
f 75/142/10 91/169/10 93/143/10
f 78/150/12 75/142/12 79/154/12
f 89/170/10 90/171/10 74/148/10
f 96/172/17 85/138/17 89/140/17
f 87/163/10 90/139/10 86/173/10
f 94/174/54 96/165/54 78/150/54
f 5/1/1 1/14/1 13/2/1
f 13/7/2 14/42/2 18/8/2
f 20/10/3 7/23/3 3/11/3
f 16/13/4 20/10/4 21/12/4
f 18/16/2 19/175/2 3/11/2
f 6/19/6 7/23/6 23/20/6
f 8/24/8 5/1/8 10/25/8
f 10/27/9 12/176/9 24/28/9
f 23/30/10 11/31/10 10/27/10
f 20/10/11 16/13/11 11/31/11
f 15/32/2 9/6/2 21/12/2
f 8/24/12 4/5/12 1/14/12
f 24/34/13 17/39/13 2/17/13
f 16/13/14 9/6/14 4/5/14
f 1/14/2 4/5/2 15/35/2
f 6/19/16 2/17/16 3/11/16
f 24/41/17 12/177/17 13/7/17
f 15/32/2 19/33/2 18/8/2
f 26/44/19 39/72/19 40/45/19
f 28/47/20 25/51/20 44/48/20
f 42/50/21 41/55/21 25/51/21
f 48/53/22 32/59/22 28/47/22
f 36/57/24 31/67/24 29/46/24
f 30/52/17 25/51/17 28/47/17
f 30/52/25 32/59/25 46/60/25
f 40/45/10 39/72/10 41/55/10
f 33/65/29 40/45/29 42/50/29
f 31/67/4 27/84/4 26/44/4
f 35/68/30 37/76/30 47/69/30
f 48/75/2 47/69/2 37/76/2
f 46/78/16 36/178/16 33/65/16
f 44/79/12 34/88/12 35/80/12
f 38/77/33 36/178/33 46/78/33
f 34/85/35 26/44/35 27/84/35
f 27/84/36 31/67/36 38/74/36
f 34/88/38 44/79/38 41/55/38
f 53/89/22 49/102/22 61/90/22
f 61/95/16 62/129/16 66/96/16
f 69/98/19 68/110/19 55/99/19
f 64/101/4 68/110/4 69/98/4
f 66/104/16 67/179/16 51/100/16
f 54/107/40 55/99/40 71/108/40
f 56/112/42 53/89/42 58/113/42
f 58/115/43 60/180/43 72/116/43
f 71/118/12 59/119/12 58/115/12
f 68/110/44 64/101/44 59/119/44
f 63/120/16 57/94/16 69/98/16
f 56/112/2 52/93/2 49/102/2
f 54/107/21 72/131/21 65/122/21
f 64/101/36 57/94/36 52/93/36
f 49/102/16 52/93/16 63/123/16
f 54/107/10 50/105/10 51/100/10
f 72/128/17 60/181/17 61/95/17
f 63/120/16 67/121/16 66/96/16
f 77/132/13 73/145/13 85/133/13
f 85/138/10 86/173/10 90/139/10
f 92/141/14 79/154/14 75/142/14
f 88/144/4 92/141/4 93/143/4
f 90/147/10 91/182/10 75/142/10
f 78/150/48 79/154/48 95/151/48
f 80/155/50 77/132/50 82/156/50
f 82/158/51 84/183/51 96/159/51
f 95/161/2 83/162/2 82/158/2
f 92/141/52 88/144/52 83/162/52
f 87/163/10 81/137/10 93/143/10
f 80/155/16 76/136/16 73/145/16
f 96/165/1 89/170/1 74/148/1
f 88/144/3 81/137/3 76/136/3
f 73/145/10 76/136/10 87/166/10
f 78/150/12 74/148/12 75/142/12
f 96/172/17 84/184/17 85/138/17
f 87/163/10 91/164/10 90/139/10
