# Blender 4.1.1
# www.blender.org
mtllib enemylefthand.mtl
o 立方体.001
v 0.066314 -0.002869 0.021299
v 0.097420 0.034876 0.021299
v 0.066314 -0.002869 -0.021299
v 0.097420 0.034876 -0.021299
v 0.914062 -0.701500 0.021299
v 0.945168 -0.663755 0.021299
v 0.914062 -0.701500 -0.021299
v 0.945168 -0.663755 -0.021299
vn -0.7717 0.6360 -0.0000
vn -0.0000 -0.0000 -1.0000
vn 0.7717 -0.6360 -0.0000
vn -0.0000 -0.0000 1.0000
vn -0.6360 -0.7717 -0.0000
vn 0.6360 0.7717 -0.0000
vt 0.625000 0.000000
vt 0.375000 0.250000
vt 0.375000 0.000000
vt 0.625000 0.500000
vt 0.375000 0.500000
vt 0.375000 0.750000
vt 0.625000 0.750000
vt 0.375000 1.000000
vt 0.125000 0.750000
vt 0.125000 0.500000
vt 0.875000 0.500000
vt 0.625000 0.250000
vt 0.625000 1.000000
vt 0.875000 0.750000
s 0
usemtl マテリアル.003
f 2/1/1 3/2/1 1/3/1
f 3/2/2 8/4/2 7/5/2
f 8/4/3 5/6/3 7/5/3
f 6/7/4 1/8/4 5/6/4
f 7/5/5 1/9/5 3/10/5
f 4/11/6 6/7/6 8/4/6
f 2/1/1 4/12/1 3/2/1
f 3/2/2 4/12/2 8/4/2
f 8/4/3 6/7/3 5/6/3
f 6/7/4 2/13/4 1/8/4
f 7/5/5 5/6/5 1/9/5
f 4/11/6 2/14/6 6/7/6
