# Blender 4.1.1
# www.blender.org
mtllib playerbody.mtl
o body
v -0.599902 1.692074 0.249959
v 0.000000 0.292303 0.249959
v -0.599902 1.692074 -0.249959
v 0.599902 1.692074 0.249959
v 0.599902 1.692074 -0.249959
v 0.000000 0.292303 -0.249959
vn -0.0000 -0.0000 1.0000
vn -0.9191 -0.3939 -0.0000
vn -0.0000 1.0000 -0.0000
vn 0.9191 -0.3939 -0.0000
vn -0.0000 -0.0000 -1.0000
vt 0.452341 0.300973
vt 0.272092 0.378282
vt 0.272049 0.223765
vt 0.207611 0.027655
vt 0.271993 0.027637
vt 0.207666 0.223783
vt 0.207710 0.378301
vt 0.272148 0.574411
vt 0.207766 0.574429
vt 0.027418 0.301093
s 0
usemtl Material
f 2/1/1 4/2/1 1/3/1
f 1/3/2 6/4/2 2/5/2
f 4/2/3 3/6/3 1/3/3
f 5/7/4 2/8/4 6/9/4
f 6/10/5 3/6/5 5/7/5
f 1/3/2 3/6/2 6/4/2
f 4/2/3 5/7/3 3/6/3
f 5/7/4 4/2/4 2/8/4
