# Blender 4.1.1
# www.blender.org
mtllib playerbody.mtl
o 円柱.001
v 0.438610 0.565874 0.000000
v 0.816670 0.565874 -0.000000
v 0.438610 0.560801 -0.193118
v 0.816670 0.560801 -0.193118
v 0.438610 0.545779 -0.378815
v 0.816670 0.545779 -0.378815
v 0.438610 0.521385 -0.549954
v 0.816670 0.521385 -0.549954
v 0.438610 0.488555 -0.699958
v 0.816670 0.488555 -0.699958
v 0.438610 0.448553 -0.823064
v 0.816670 0.448553 -0.823064
v 0.438610 0.402914 -0.914540
v 0.816670 0.402914 -0.914540
v 0.438610 0.353392 -0.970870
v 0.816670 0.353392 -0.970870
v 0.438610 0.301892 -0.989891
v 0.816670 0.301892 -0.989891
v 0.438610 0.250392 -0.970870
v 0.816670 0.250392 -0.970870
v 0.438610 0.200871 -0.914540
v 0.816670 0.200871 -0.914540
v 0.438610 0.155232 -0.823064
v 0.816670 0.155232 -0.823064
v 0.438610 0.115229 -0.699958
v 0.816670 0.115229 -0.699958
v 0.438610 0.082399 -0.549954
v 0.816670 0.082399 -0.549954
v 0.438610 0.058005 -0.378815
v 0.816670 0.058005 -0.378815
v 0.438610 0.042983 -0.193118
v 0.816670 0.042983 -0.193118
v 0.438610 0.037911 0.000000
v 0.816670 0.037911 -0.000000
v 0.438610 0.042983 0.193118
v 0.816670 0.042983 0.193118
v 0.438610 0.058005 0.378815
v 0.816670 0.058005 0.378815
v 0.438610 0.082399 0.549954
v 0.816670 0.082399 0.549954
v 0.438610 0.115229 0.699958
v 0.816670 0.115229 0.699958
v 0.438610 0.155232 0.823064
v 0.816670 0.155232 0.823064
v 0.438610 0.200871 0.914540
v 0.816670 0.200871 0.914540
v 0.438610 0.250392 0.970870
v 0.816670 0.250392 0.970870
v 0.438610 0.301892 0.989891
v 0.816670 0.301892 0.989891
v 0.438610 0.353392 0.970870
v 0.816670 0.353392 0.970870
v 0.438610 0.402914 0.914540
v 0.816670 0.402914 0.914540
v 0.438610 0.448553 0.823064
v 0.816670 0.448553 0.823064
v 0.438610 0.488555 0.699958
v 0.816670 0.488555 0.699958
v 0.438610 0.521385 0.549954
v 0.816670 0.521385 0.549954
v 0.438610 0.545779 0.378815
v 0.816670 0.545779 0.378815
v 0.438610 0.560801 0.193118
v 0.816670 0.560801 0.193118
v 0.000000 0.259441 -0.232156
v 0.000000 1.774177 -0.232156
v 0.045291 0.259441 -0.227695
v 0.045291 1.774177 -0.227695
v 0.088842 0.259441 -0.214484
v 0.088842 1.774177 -0.214484
v 0.128979 0.259441 -0.193031
v 0.128979 1.774177 -0.193031
v 0.164159 0.259441 -0.164159
v 0.164159 1.774177 -0.164159
v 0.193031 0.259441 -0.128979
v 0.193031 1.774177 -0.128979
v 0.214484 0.259441 -0.088842
v 0.214484 1.774177 -0.088842
v 0.227695 0.259441 -0.045291
v 0.227695 1.774177 -0.045291
v 0.232156 0.259441 0.000000
v 0.232156 1.774177 0.000000
v 0.227695 0.259441 0.045291
v 0.227695 1.774177 0.045291
v 0.214484 0.259441 0.088842
v 0.214484 1.774177 0.088842
v 0.193031 0.259441 0.128979
v 0.193031 1.774177 0.128979
v 0.164159 0.259441 0.164159
v 0.164159 1.774177 0.164159
v 0.128979 0.259441 0.193031
v 0.128979 1.774177 0.193031
v 0.088842 0.259441 0.214484
v 0.088842 1.774177 0.214484
v 0.045291 0.259441 0.227695
v 0.045291 1.774177 0.227695
v 0.000000 0.259441 0.232156
v 0.000000 1.774177 0.232156
v -0.045291 0.259441 0.227695
v -0.045291 1.774177 0.227695
v -0.088842 0.259441 0.214484
v -0.088842 1.774177 0.214484
v -0.128979 0.259441 0.193031
v -0.128979 1.774177 0.193031
v -0.164159 0.259441 0.164159
v -0.164159 1.774177 0.164159
v -0.193031 0.259441 0.128979
v -0.193031 1.774177 0.128979
v -0.214484 0.259441 0.088842
v -0.214484 1.774177 0.088842
v -0.227695 0.259441 0.045291
v -0.227695 1.774177 0.045291
v -0.232156 0.259441 0.000000
v -0.232156 1.774177 0.000000
v -0.227695 0.259441 -0.045291
v -0.227695 1.774177 -0.045291
v -0.214484 0.259441 -0.088842
v -0.214484 1.774177 -0.088842
v -0.193031 0.259441 -0.128979
v -0.193031 1.774177 -0.128979
v -0.164159 0.259441 -0.164159
v -0.164159 1.774177 -0.164159
v -0.128979 0.259441 -0.193031
v -0.128979 1.774177 -0.193031
v -0.088842 0.259441 -0.214484
v -0.088842 1.774177 -0.214484
v -0.045291 0.259441 -0.227695
v -0.045291 1.774177 -0.227695
v -0.772404 0.565874 0.000000
v -0.394344 0.565874 -0.000000
v -0.772404 0.560801 -0.193118
v -0.394344 0.560801 -0.193118
v -0.772404 0.545779 -0.378815
v -0.394344 0.545779 -0.378815
v -0.772404 0.521385 -0.549954
v -0.394344 0.521385 -0.549954
v -0.772404 0.488555 -0.699958
v -0.394344 0.488555 -0.699958
v -0.772404 0.448553 -0.823064
v -0.394344 0.448553 -0.823064
v -0.772404 0.402914 -0.914540
v -0.394344 0.402914 -0.914540
v -0.772404 0.353392 -0.970870
v -0.394344 0.353392 -0.970870
v -0.772404 0.301892 -0.989891
v -0.394344 0.301892 -0.989891
v -0.772404 0.250392 -0.970870
v -0.394344 0.250392 -0.970870
v -0.772404 0.200871 -0.914540
v -0.394344 0.200871 -0.914540
v -0.772404 0.155232 -0.823064
v -0.394344 0.155232 -0.823064
v -0.772404 0.115229 -0.699958
v -0.394344 0.115229 -0.699958
v -0.772404 0.082399 -0.549954
v -0.394344 0.082399 -0.549954
v -0.772404 0.058005 -0.378815
v -0.394344 0.058005 -0.378815
v -0.772404 0.042983 -0.193118
v -0.394344 0.042983 -0.193118
v -0.772404 0.037911 0.000000
v -0.394344 0.037911 -0.000000
v -0.772404 0.042983 0.193118
v -0.394344 0.042983 0.193118
v -0.772404 0.058005 0.378815
v -0.394344 0.058005 0.378815
v -0.772404 0.082399 0.549954
v -0.394344 0.082399 0.549954
v -0.772404 0.115229 0.699958
v -0.394344 0.115229 0.699958
v -0.772404 0.155232 0.823064
v -0.394344 0.155232 0.823064
v -0.772404 0.200871 0.914540
v -0.394344 0.200871 0.914540
v -0.772404 0.250392 0.970870
v -0.394344 0.250392 0.970870
v -0.772404 0.301892 0.989891
v -0.394344 0.301892 0.989891
v -0.772404 0.353392 0.970870
v -0.394344 0.353392 0.970870
v -0.772404 0.402914 0.914540
v -0.394344 0.402914 0.914540
v -0.772404 0.448553 0.823064
v -0.394344 0.448553 0.823064
v -0.772404 0.488555 0.699958
v -0.394344 0.488555 0.699958
v -0.772404 0.521385 0.549954
v -0.394344 0.521385 0.549954
v -0.772404 0.545779 0.378815
v -0.394344 0.545779 0.378815
v -0.772404 0.560801 0.193118
v -0.394344 0.560801 0.193118
v 0.588038 1.559849 -0.463846
v 0.588038 1.296018 -0.463846
v 0.588038 1.559849 0.463846
v 0.588038 1.296018 0.463846
v -0.588038 1.559849 -0.463846
v -0.588038 1.296018 -0.463846
v -0.588038 1.559849 0.463846
v -0.588038 1.296018 0.463846
v 0.613239 0.454188 -0.580496
v 0.613239 0.126836 -0.580496
v 0.613239 0.454188 0.580496
v 0.613239 0.126836 0.580496
v -0.613239 0.454188 -0.580496
v -0.613239 0.126836 -0.580496
v -0.613239 0.454188 0.580496
v -0.613239 0.126836 0.580496
vn -0.0000 0.9997 -0.0263
vn -0.0000 0.9967 -0.0806
vn -0.0000 0.9900 -0.1411
vn -0.0000 0.9769 -0.2138
vn -0.0000 0.9510 -0.3090
vn -0.0000 0.8948 -0.4464
vn -0.0000 0.7510 -0.6603
vn -0.0000 0.3465 -0.9381
vn -0.0000 -0.3465 -0.9381
vn -0.0000 -0.7510 -0.6603
vn -0.0000 -0.8948 -0.4464
vn -0.0000 -0.9510 -0.3090
vn -0.0000 -0.9769 -0.2138
vn -0.0000 -0.9900 -0.1411
vn -0.0000 -0.9967 -0.0806
vn -0.0000 -0.9997 -0.0263
vn -0.0000 -0.9997 0.0263
vn -0.0000 -0.9967 0.0806
vn -0.0000 -0.9900 0.1411
vn -0.0000 -0.9769 0.2138
vn -0.0000 -0.9510 0.3090
vn -0.0000 -0.8948 0.4464
vn -0.0000 -0.7510 0.6603
vn -0.0000 -0.3465 0.9381
vn -0.0000 0.3465 0.9381
vn -0.0000 0.7510 0.6603
vn -0.0000 0.8948 0.4464
vn -0.0000 0.9510 0.3090
vn -0.0000 0.9769 0.2138
vn -0.0000 0.9900 0.1411
vn 1.0000 -0.0000 -0.0000
vn -0.0000 0.9967 0.0806
vn -0.0000 0.9997 0.0263
vn -1.0000 -0.0000 -0.0000
vn 0.0980 -0.0000 -0.9952
vn 0.2903 -0.0000 -0.9569
vn 0.4714 -0.0000 -0.8819
vn 0.6344 -0.0000 -0.7730
vn 0.7730 -0.0000 -0.6344
vn 0.8819 -0.0000 -0.4714
vn 0.9569 -0.0000 -0.2903
vn 0.9952 -0.0000 -0.0980
vn 0.9952 -0.0000 0.0980
vn 0.9569 -0.0000 0.2903
vn 0.8819 -0.0000 0.4714
vn 0.7730 -0.0000 0.6344
vn 0.6344 -0.0000 0.7730
vn 0.4714 -0.0000 0.8819
vn 0.2903 -0.0000 0.9569
vn 0.0980 -0.0000 0.9952
vn -0.0980 -0.0000 0.9952
vn -0.2903 -0.0000 0.9569
vn -0.4714 -0.0000 0.8819
vn -0.6344 -0.0000 0.7730
vn -0.7730 -0.0000 0.6344
vn -0.8819 -0.0000 0.4714
vn -0.9569 -0.0000 0.2903
vn -0.9952 -0.0000 0.0980
vn -0.9952 -0.0000 -0.0980
vn -0.9569 -0.0000 -0.2903
vn -0.8819 -0.0000 -0.4714
vn -0.7730 -0.0000 -0.6344
vn -0.6344 -0.0000 -0.7730
vn -0.4714 -0.0000 -0.8819
vn -0.0000 1.0000 -0.0000
vn -0.2903 -0.0000 -0.9569
vn -0.0980 -0.0000 -0.9952
vn -0.0000 -1.0000 -0.0000
vn -0.0000 -0.0000 1.0000
vn -0.0000 -0.0000 -1.0000
vt 1.000000 1.000000
vt 0.968750 0.500000
vt 1.000000 0.500000
vt 0.968750 1.000000
vt 0.937500 0.500000
vt 0.906250 1.000000
vt 0.906250 0.500000
vt 0.875000 0.500000
vt 0.875000 1.000000
vt 0.843750 0.500000
vt 0.843750 1.000000
vt 0.812500 0.500000
vt 0.812500 1.000000
vt 0.781250 0.500000
vt 0.781250 1.000000
vt 0.750000 0.500000
vt 0.750000 1.000000
vt 0.718750 0.500000
vt 0.718750 1.000000
vt 0.687500 0.500000
vt 0.687500 1.000000
vt 0.656250 0.500000
vt 0.656250 1.000000
vt 0.625000 0.500000
vt 0.625000 1.000000
vt 0.593750 0.500000
vt 0.593750 1.000000
vt 0.562500 0.500000
vt 0.562500 1.000000
vt 0.531250 0.500000
vt 0.531250 1.000000
vt 0.500000 0.500000
vt 0.500000 1.000000
vt 0.468750 0.500000
vt 0.468750 1.000000
vt 0.437500 0.500000
vt 0.406250 1.000000
vt 0.406250 0.500000
vt 0.375000 0.500000
vt 0.375000 1.000000
vt 0.343750 0.500000
vt 0.343750 1.000000
vt 0.312500 0.500000
vt 0.312500 1.000000
vt 0.281250 0.500000
vt 0.281250 1.000000
vt 0.250000 0.500000
vt 0.250000 1.000000
vt 0.218750 0.500000
vt 0.218750 1.000000
vt 0.187500 0.500000
vt 0.187500 1.000000
vt 0.156250 0.500000
vt 0.156250 1.000000
vt 0.125000 0.500000
vt 0.125000 1.000000
vt 0.093750 0.500000
vt 0.062500 1.000000
vt 0.062500 0.500000
vt 0.158156 0.028269
vt 0.471731 0.158156
vt 0.341844 0.471731
vt 0.031250 0.500000
vt 0.031250 1.000000
vt 0.000000 0.500000
vt 0.796822 0.014612
vt 0.514612 0.203178
vt 0.703178 0.485388
vt 0.937500 1.000000
vt 0.437500 1.000000
vt 0.093750 1.000000
vt 0.000000 0.000000
vt 0.296822 0.485388
vt 0.250000 0.490000
vt 0.203178 0.485388
vt 0.158156 0.471731
vt 0.116663 0.449553
vt 0.080294 0.419706
vt 0.050447 0.383337
vt 0.028269 0.341844
vt 0.014612 0.296822
vt 0.010000 0.250000
vt 0.014612 0.203178
vt 0.028269 0.158156
vt 0.050447 0.116663
vt 0.080294 0.080294
vt 0.116663 0.050447
vt 0.203178 0.014612
vt 0.250000 0.010000
vt 0.296822 0.014612
vt 0.341844 0.028269
vt 0.383337 0.050447
vt 0.419706 0.080294
vt 0.449553 0.116663
vt 0.485388 0.203178
vt 0.490000 0.250000
vt 0.485388 0.296822
vt 0.471731 0.341844
vt 0.449553 0.383337
vt 0.419706 0.419706
vt 0.383337 0.449553
vt 0.000000 1.000000
vt 0.750000 0.490000
vt 0.796822 0.485388
vt 0.841844 0.471731
vt 0.883337 0.449553
vt 0.919706 0.419706
vt 0.949553 0.383337
vt 0.971731 0.341844
vt 0.985388 0.296822
vt 0.990000 0.250000
vt 0.985388 0.203178
vt 0.971731 0.158156
vt 0.949553 0.116663
vt 0.919706 0.080294
vt 0.883337 0.050447
vt 0.841844 0.028269
vt 0.750000 0.010000
vt 0.703178 0.014612
vt 0.658156 0.028269
vt 0.616663 0.050447
vt 0.580294 0.080294
vt 0.550447 0.116663
vt 0.528269 0.158156
vt 0.510000 0.250000
vt 0.514612 0.296822
vt 0.528269 0.341844
vt 0.550447 0.383337
vt 0.580294 0.419706
vt 0.616663 0.449553
vt 0.658156 0.471731
s 0
usemtl マテリアル.001
f 2/1/1 3/2/1 1/3/1
f 4/4/2 5/5/2 3/2/2
f 5/5/3 8/6/3 7/7/3
f 8/6/4 9/8/4 7/7/4
f 10/9/5 11/10/5 9/8/5
f 12/11/6 13/12/6 11/10/6
f 14/13/7 15/14/7 13/12/7
f 16/15/8 17/16/8 15/14/8
f 18/17/9 19/18/9 17/16/9
f 20/19/10 21/20/10 19/18/10
f 22/21/11 23/22/11 21/20/11
f 24/23/12 25/24/12 23/22/12
f 26/25/13 27/26/13 25/24/13
f 28/27/14 29/28/14 27/26/14
f 30/29/15 31/30/15 29/28/15
f 32/31/16 33/32/16 31/30/16
f 34/33/17 35/34/17 33/32/17
f 36/35/18 37/36/18 35/34/18
f 37/36/19 40/37/19 39/38/19
f 40/37/20 41/39/20 39/38/20
f 42/40/21 43/41/21 41/39/21
f 44/42/22 45/43/22 43/41/22
f 46/44/23 47/45/23 45/43/23
f 48/46/24 49/47/24 47/45/24
f 50/48/25 51/49/25 49/47/25
f 52/50/26 53/51/26 51/49/26
f 54/52/27 55/53/27 53/51/27
f 56/54/28 57/55/28 55/53/28
f 58/56/29 59/57/29 57/55/29
f 59/57/30 62/58/30 61/59/30
f 38/60/31 22/61/31 6/62/31
f 62/58/32 63/63/32 61/59/32
f 64/64/33 1/65/33 63/63/33
f 31/66/34 47/67/34 63/68/34
f 66/1/35 67/2/35 65/3/35
f 68/4/36 69/5/36 67/2/36
f 70/69/37 71/7/37 69/5/37
f 72/6/38 73/8/38 71/7/38
f 74/9/39 75/10/39 73/8/39
f 76/11/40 77/12/40 75/10/40
f 78/13/41 79/14/41 77/12/41
f 80/15/42 81/16/42 79/14/42
f 82/17/43 83/18/43 81/16/43
f 84/19/44 85/20/44 83/18/44
f 86/21/45 87/22/45 85/20/45
f 88/23/46 89/24/46 87/22/46
f 90/25/47 91/26/47 89/24/47
f 92/27/48 93/28/48 91/26/48
f 94/29/49 95/30/49 93/28/49
f 96/31/50 97/32/50 95/30/50
f 98/33/51 99/34/51 97/32/51
f 100/35/52 101/36/52 99/34/52
f 102/70/53 103/38/53 101/36/53
f 104/37/54 105/39/54 103/38/54
f 106/40/55 107/41/55 105/39/55
f 108/42/56 109/43/56 107/41/56
f 110/44/57 111/45/57 109/43/57
f 112/46/58 113/47/58 111/45/58
f 114/48/59 115/49/59 113/47/59
f 116/50/60 117/51/60 115/49/60
f 118/52/61 119/53/61 117/51/61
f 120/54/62 121/55/62 119/53/62
f 122/56/63 123/57/63 121/55/63
f 124/71/64 125/59/64 123/57/64
f 102/60/65 86/61/65 70/62/65
f 126/58/66 127/63/66 125/59/66
f 128/64/67 65/65/67 127/63/67
f 95/66/68 111/67/68 127/68/68
f 130/1/1 131/2/1 129/3/1
f 132/4/2 133/5/2 131/2/2
f 133/5/3 136/6/3 135/7/3
f 136/6/4 137/8/4 135/7/4
f 138/9/5 139/10/5 137/8/5
f 140/11/6 141/12/6 139/10/6
f 142/13/7 143/14/7 141/12/7
f 144/15/8 145/16/8 143/14/8
f 146/17/9 147/18/9 145/16/9
f 148/19/10 149/20/10 147/18/10
f 150/21/11 151/22/11 149/20/11
f 152/23/12 153/24/12 151/22/12
f 154/25/13 155/26/13 153/24/13
f 156/27/14 157/28/14 155/26/14
f 158/29/15 159/30/15 157/28/15
f 160/31/16 161/32/16 159/30/16
f 162/33/17 163/34/17 161/32/17
f 164/35/18 165/36/18 163/34/18
f 166/70/19 167/38/19 165/36/19
f 167/38/20 170/40/20 169/39/20
f 170/40/21 171/41/21 169/39/21
f 172/42/22 173/43/22 171/41/22
f 174/44/23 175/45/23 173/43/23
f 176/46/24 177/47/24 175/45/24
f 178/48/25 179/49/25 177/47/25
f 180/50/26 181/51/26 179/49/26
f 182/52/27 183/53/27 181/51/27
f 184/54/28 185/55/28 183/53/28
f 185/55/29 188/71/29 187/57/29
f 188/71/30 189/59/30 187/57/30
f 166/60/31 150/61/31 134/62/31
f 190/58/32 191/63/32 189/59/32
f 192/64/33 129/65/33 191/63/33
f 159/66/34 175/67/34 191/68/34
f 197/72/65 195/72/65 193/72/65
f 195/72/69 200/72/69 196/72/69
f 199/72/34 198/72/34 200/72/34
f 194/72/68 200/72/68 198/72/68
f 193/72/31 196/72/31 194/72/31
f 197/72/70 194/72/70 198/72/70
f 205/72/65 203/72/65 201/72/65
f 203/72/69 208/72/69 204/72/69
f 207/72/34 206/72/34 208/72/34
f 202/72/68 208/72/68 206/72/68
f 201/72/31 204/72/31 202/72/31
f 205/72/70 202/72/70 206/72/70
f 2/1/1 4/4/1 3/2/1
f 4/4/2 6/69/2 5/5/2
f 5/5/3 6/69/3 8/6/3
f 8/6/4 10/9/4 9/8/4
f 10/9/5 12/11/5 11/10/5
f 12/11/6 14/13/6 13/12/6
f 14/13/7 16/15/7 15/14/7
f 16/15/8 18/17/8 17/16/8
f 18/17/9 20/19/9 19/18/9
f 20/19/10 22/21/10 21/20/10
f 22/21/11 24/23/11 23/22/11
f 24/23/12 26/25/12 25/24/12
f 26/25/13 28/27/13 27/26/13
f 28/27/14 30/29/14 29/28/14
f 30/29/15 32/31/15 31/30/15
f 32/31/16 34/33/16 33/32/16
f 34/33/17 36/35/17 35/34/17
f 36/35/18 38/70/18 37/36/18
f 37/36/19 38/70/19 40/37/19
f 40/37/20 42/40/20 41/39/20
f 42/40/21 44/42/21 43/41/21
f 44/42/22 46/44/22 45/43/22
f 46/44/23 48/46/23 47/45/23
f 48/46/24 50/48/24 49/47/24
f 50/48/25 52/50/25 51/49/25
f 52/50/26 54/52/26 53/51/26
f 54/52/27 56/54/27 55/53/27
f 56/54/28 58/56/28 57/55/28
f 58/56/29 60/71/29 59/57/29
f 59/57/30 60/71/30 62/58/30
f 6/62/31 4/73/31 2/74/31
f 2/74/31 64/75/31 62/76/31
f 62/76/31 60/77/31 58/78/31
f 58/78/31 56/79/31 54/80/31
f 54/80/31 52/81/31 50/82/31
f 50/82/31 48/83/31 46/84/31
f 46/84/31 44/85/31 42/86/31
f 42/86/31 40/87/31 38/60/31
f 38/60/31 36/88/31 34/89/31
f 34/89/31 32/90/31 30/91/31
f 30/91/31 28/92/31 26/93/31
f 26/93/31 24/94/31 22/61/31
f 22/61/31 20/95/31 18/96/31
f 18/96/31 16/97/31 14/98/31
f 14/98/31 12/99/31 10/100/31
f 10/100/31 8/101/31 6/62/31
f 6/62/31 2/74/31 62/76/31
f 62/76/31 58/78/31 54/80/31
f 54/80/31 50/82/31 46/84/31
f 46/84/31 42/86/31 38/60/31
f 38/60/31 34/89/31 30/91/31
f 30/91/31 26/93/31 22/61/31
f 22/61/31 18/96/31 14/98/31
f 14/98/31 10/100/31 6/62/31
f 6/62/31 62/76/31 54/80/31
f 54/80/31 46/84/31 38/60/31
f 38/60/31 30/91/31 22/61/31
f 22/61/31 14/98/31 6/62/31
f 6/62/31 54/80/31 38/60/31
f 62/58/32 64/64/32 63/63/32
f 64/64/33 2/102/33 1/65/33
f 63/68/34 1/103/34 3/104/34
f 3/104/34 5/105/34 7/106/34
f 7/106/34 9/107/34 11/108/34
f 11/108/34 13/109/34 15/110/34
f 15/110/34 17/111/34 19/112/34
f 19/112/34 21/113/34 23/114/34
f 23/114/34 25/115/34 27/116/34
f 27/116/34 29/117/34 31/66/34
f 31/66/34 33/118/34 35/119/34
f 35/119/34 37/120/34 39/121/34
f 39/121/34 41/122/34 43/123/34
f 43/123/34 45/124/34 47/67/34
f 47/67/34 49/125/34 51/126/34
f 51/126/34 53/127/34 55/128/34
f 55/128/34 57/129/34 59/130/34
f 59/130/34 61/131/34 63/68/34
f 63/68/34 3/104/34 7/106/34
f 7/106/34 11/108/34 15/110/34
f 15/110/34 19/112/34 23/114/34
f 23/114/34 27/116/34 31/66/34
f 31/66/34 35/119/34 39/121/34
f 39/121/34 43/123/34 47/67/34
f 47/67/34 51/126/34 55/128/34
f 55/128/34 59/130/34 63/68/34
f 63/68/34 7/106/34 15/110/34
f 15/110/34 23/114/34 31/66/34
f 31/66/34 39/121/34 47/67/34
f 47/67/34 55/128/34 63/68/34
f 63/68/34 15/110/34 31/66/34
f 66/1/35 68/4/35 67/2/35
f 68/4/36 70/69/36 69/5/36
f 70/69/37 72/6/37 71/7/37
f 72/6/38 74/9/38 73/8/38
f 74/9/39 76/11/39 75/10/39
f 76/11/40 78/13/40 77/12/40
f 78/13/41 80/15/41 79/14/41
f 80/15/42 82/17/42 81/16/42
f 82/17/43 84/19/43 83/18/43
f 84/19/44 86/21/44 85/20/44
f 86/21/45 88/23/45 87/22/45
f 88/23/46 90/25/46 89/24/46
f 90/25/47 92/27/47 91/26/47
f 92/27/48 94/29/48 93/28/48
f 94/29/49 96/31/49 95/30/49
f 96/31/50 98/33/50 97/32/50
f 98/33/51 100/35/51 99/34/51
f 100/35/52 102/70/52 101/36/52
f 102/70/53 104/37/53 103/38/53
f 104/37/54 106/40/54 105/39/54
f 106/40/55 108/42/55 107/41/55
f 108/42/56 110/44/56 109/43/56
f 110/44/57 112/46/57 111/45/57
f 112/46/58 114/48/58 113/47/58
f 114/48/59 116/50/59 115/49/59
f 116/50/60 118/52/60 117/51/60
f 118/52/61 120/54/61 119/53/61
f 120/54/62 122/56/62 121/55/62
f 122/56/63 124/71/63 123/57/63
f 124/71/64 126/58/64 125/59/64
f 70/62/65 68/73/65 66/74/65
f 66/74/65 128/75/65 126/76/65
f 126/76/65 124/77/65 122/78/65
f 122/78/65 120/79/65 118/80/65
f 118/80/65 116/81/65 114/82/65
f 114/82/65 112/83/65 110/84/65
f 110/84/65 108/85/65 106/86/65
f 106/86/65 104/87/65 102/60/65
f 102/60/65 100/88/65 98/89/65
f 98/89/65 96/90/65 94/91/65
f 94/91/65 92/92/65 90/93/65
f 90/93/65 88/94/65 86/61/65
f 86/61/65 84/95/65 82/96/65
f 82/96/65 80/97/65 78/98/65
f 78/98/65 76/99/65 74/100/65
f 74/100/65 72/101/65 70/62/65
f 70/62/65 66/74/65 126/76/65
f 126/76/65 122/78/65 118/80/65
f 118/80/65 114/82/65 110/84/65
f 110/84/65 106/86/65 102/60/65
f 102/60/65 98/89/65 94/91/65
f 94/91/65 90/93/65 86/61/65
f 86/61/65 82/96/65 78/98/65
f 78/98/65 74/100/65 70/62/65
f 70/62/65 126/76/65 118/80/65
f 118/80/65 110/84/65 102/60/65
f 102/60/65 94/91/65 86/61/65
f 86/61/65 78/98/65 70/62/65
f 70/62/65 118/80/65 102/60/65
f 126/58/66 128/64/66 127/63/66
f 128/64/67 66/102/67 65/65/67
f 127/68/68 65/103/68 67/104/68
f 67/104/68 69/105/68 71/106/68
f 71/106/68 73/107/68 75/108/68
f 75/108/68 77/109/68 79/110/68
f 79/110/68 81/111/68 83/112/68
f 83/112/68 85/113/68 87/114/68
f 87/114/68 89/115/68 91/116/68
f 91/116/68 93/117/68 95/66/68
f 95/66/68 97/118/68 99/119/68
f 99/119/68 101/120/68 103/121/68
f 103/121/68 105/122/68 107/123/68
f 107/123/68 109/124/68 111/67/68
f 111/67/68 113/125/68 115/126/68
f 115/126/68 117/127/68 119/128/68
f 119/128/68 121/129/68 123/130/68
f 123/130/68 125/131/68 127/68/68
f 127/68/68 67/104/68 71/106/68
f 71/106/68 75/108/68 79/110/68
f 79/110/68 83/112/68 87/114/68
f 87/114/68 91/116/68 95/66/68
f 95/66/68 99/119/68 103/121/68
f 103/121/68 107/123/68 111/67/68
f 111/67/68 115/126/68 119/128/68
f 119/128/68 123/130/68 127/68/68
f 127/68/68 71/106/68 79/110/68
f 79/110/68 87/114/68 95/66/68
f 95/66/68 103/121/68 111/67/68
f 111/67/68 119/128/68 127/68/68
f 127/68/68 79/110/68 95/66/68
f 130/1/1 132/4/1 131/2/1
f 132/4/2 134/69/2 133/5/2
f 133/5/3 134/69/3 136/6/3
f 136/6/4 138/9/4 137/8/4
f 138/9/5 140/11/5 139/10/5
f 140/11/6 142/13/6 141/12/6
f 142/13/7 144/15/7 143/14/7
f 144/15/8 146/17/8 145/16/8
f 146/17/9 148/19/9 147/18/9
f 148/19/10 150/21/10 149/20/10
f 150/21/11 152/23/11 151/22/11
f 152/23/12 154/25/12 153/24/12
f 154/25/13 156/27/13 155/26/13
f 156/27/14 158/29/14 157/28/14
f 158/29/15 160/31/15 159/30/15
f 160/31/16 162/33/16 161/32/16
f 162/33/17 164/35/17 163/34/17
f 164/35/18 166/70/18 165/36/18
f 166/70/19 168/37/19 167/38/19
f 167/38/20 168/37/20 170/40/20
f 170/40/21 172/42/21 171/41/21
f 172/42/22 174/44/22 173/43/22
f 174/44/23 176/46/23 175/45/23
f 176/46/24 178/48/24 177/47/24
f 178/48/25 180/50/25 179/49/25
f 180/50/26 182/52/26 181/51/26
f 182/52/27 184/54/27 183/53/27
f 184/54/28 186/56/28 185/55/28
f 185/55/29 186/56/29 188/71/29
f 188/71/30 190/58/30 189/59/30
f 134/62/31 132/73/31 130/74/31
f 130/74/31 192/75/31 190/76/31
f 190/76/31 188/77/31 186/78/31
f 186/78/31 184/79/31 182/80/31
f 182/80/31 180/81/31 178/82/31
f 178/82/31 176/83/31 174/84/31
f 174/84/31 172/85/31 170/86/31
f 170/86/31 168/87/31 166/60/31
f 166/60/31 164/88/31 162/89/31
f 162/89/31 160/90/31 158/91/31
f 158/91/31 156/92/31 154/93/31
f 154/93/31 152/94/31 150/61/31
f 150/61/31 148/95/31 146/96/31
f 146/96/31 144/97/31 142/98/31
f 142/98/31 140/99/31 138/100/31
f 138/100/31 136/101/31 134/62/31
f 134/62/31 130/74/31 190/76/31
f 190/76/31 186/78/31 182/80/31
f 182/80/31 178/82/31 174/84/31
f 174/84/31 170/86/31 166/60/31
f 166/60/31 162/89/31 158/91/31
f 158/91/31 154/93/31 150/61/31
f 150/61/31 146/96/31 142/98/31
f 142/98/31 138/100/31 134/62/31
f 134/62/31 190/76/31 182/80/31
f 182/80/31 174/84/31 166/60/31
f 166/60/31 158/91/31 150/61/31
f 150/61/31 142/98/31 134/62/31
f 134/62/31 182/80/31 166/60/31
f 190/58/32 192/64/32 191/63/32
f 192/64/33 130/102/33 129/65/33
f 191/68/34 129/103/34 131/104/34
f 131/104/34 133/105/34 135/106/34
f 135/106/34 137/107/34 139/108/34
f 139/108/34 141/109/34 143/110/34
f 143/110/34 145/111/34 147/112/34
f 147/112/34 149/113/34 151/114/34
f 151/114/34 153/115/34 155/116/34
f 155/116/34 157/117/34 159/66/34
f 159/66/34 161/118/34 163/119/34
f 163/119/34 165/120/34 167/121/34
f 167/121/34 169/122/34 171/123/34
f 171/123/34 173/124/34 175/67/34
f 175/67/34 177/125/34 179/126/34
f 179/126/34 181/127/34 183/128/34
f 183/128/34 185/129/34 187/130/34
f 187/130/34 189/131/34 191/68/34
f 191/68/34 131/104/34 135/106/34
f 135/106/34 139/108/34 143/110/34
f 143/110/34 147/112/34 151/114/34
f 151/114/34 155/116/34 159/66/34
f 159/66/34 163/119/34 167/121/34
f 167/121/34 171/123/34 175/67/34
f 175/67/34 179/126/34 183/128/34
f 183/128/34 187/130/34 191/68/34
f 191/68/34 135/106/34 143/110/34
f 143/110/34 151/114/34 159/66/34
f 159/66/34 167/121/34 175/67/34
f 175/67/34 183/128/34 191/68/34
f 191/68/34 143/110/34 159/66/34
f 197/72/65 199/72/65 195/72/65
f 195/72/69 199/72/69 200/72/69
f 199/72/34 197/72/34 198/72/34
f 194/72/68 196/72/68 200/72/68
f 193/72/31 195/72/31 196/72/31
f 197/72/70 193/72/70 194/72/70
f 205/72/65 207/72/65 203/72/65
f 203/72/69 207/72/69 208/72/69
f 207/72/34 205/72/34 206/72/34
f 202/72/68 204/72/68 208/72/68
f 201/72/31 203/72/31 204/72/31
f 205/72/70 201/72/70 202/72/70
