# Blender 4.1.1
# www.blender.org
mtllib playerrighthand.mtl
o Cube.010
v -0.100480 -1.247231 0.076167
v -0.100480 -1.247231 0.195536
v -0.100480 -1.035962 0.076167
v -0.100480 -1.035962 0.195536
v -0.216416 -1.247231 0.076167
v -0.216416 -1.247231 0.195536
v -0.216416 -1.035962 0.076167
v -0.216416 -1.035962 0.195536
v -0.057139 -0.922590 -0.120355
v -0.057139 -0.922590 0.123696
v -0.057139 0.114257 -0.120355
v -0.057139 0.114257 0.123696
v -0.259757 -0.922590 -0.120355
v -0.259757 -0.922590 0.123696
v -0.259757 0.114257 -0.120355
v -0.259757 0.114257 0.123696
v -0.100480 -1.247231 -0.196593
v -0.100480 -1.247231 -0.077225
v -0.100480 -1.035962 -0.196593
v -0.100480 -1.035962 -0.077225
v -0.216416 -1.247231 -0.196593
v -0.216416 -1.247231 -0.077225
v -0.216416 -1.035962 -0.196593
v -0.216416 -1.035962 -0.077225
v -0.098669 -1.055354 -0.207698
v -0.098669 -1.055354 0.211038
v -0.098669 -0.915179 -0.207698
v -0.098669 -0.915179 0.211038
v -0.218226 -1.055354 -0.207698
v -0.218226 -1.055354 0.211038
v -0.218226 -0.915179 -0.207698
v -0.218226 -0.915179 0.211038
vn -0.0000 -0.0000 -1.0000
vn -0.0000 1.0000 -0.0000
vn -1.0000 -0.0000 -0.0000
vn -0.0000 -0.0000 1.0000
vn 1.0000 -0.0000 -0.0000
vn -0.0000 -1.0000 -0.0000
vt 0.616314 0.128540
vt 0.698566 0.173982
vt 0.616186 0.173748
vt 0.745240 0.128908
vt 0.745111 0.174115
vt 0.616549 0.046160
vt 0.569769 0.128408
vt 0.570004 0.046028
vt 0.569640 0.173615
vt 0.487389 0.128173
vt 0.615951 0.256128
vt 0.569406 0.255995
vt 0.405429 0.500140
vt 0.485587 0.096068
vt 0.484436 0.500365
vt 0.406851 0.000680
vt 0.485858 0.000905
vt 0.001132 0.498989
vt 0.405158 0.595303
vt 0.000861 0.594152
vt 0.484165 0.595528
vt 0.404007 0.999600
vt 0.888463 0.596679
vt 0.130288 0.312150
vt 0.212540 0.357592
vt 0.130159 0.357358
vt 0.259214 0.312518
vt 0.259085 0.357725
vt 0.130523 0.229770
vt 0.083743 0.312018
vt 0.083977 0.229638
vt 0.083614 0.357225
vt 0.001363 0.311783
vt 0.083379 0.439605
vt 0.187325 0.155119
vt 0.192806 0.226749
vt 0.154266 0.187990
vt 0.340990 0.309662
vt 0.307931 0.342533
vt 0.226084 0.116580
vt 0.072199 0.039336
vt 0.110958 0.000797
vt 0.039141 0.072207
vt 0.033660 0.000577
vt 0.000381 0.110746
vt 0.698695 0.128775
vt 0.487260 0.173381
vt 0.406580 0.095843
vt 0.483014 0.999825
vt 0.888734 0.501516
vt 0.212669 0.312385
vt 0.001234 0.356991
vt 0.129925 0.439738
vt 0.225864 0.193879
vt 0.000602 0.033448
vt 0.115507 0.226529
s 0
usemtl マテリアル.003
f 5/1/1 3/2/1 1/3/1
f 3/2/2 8/4/2 4/5/2
f 7/6/3 6/7/3 8/8/3
f 2/9/4 8/10/4 6/7/4
f 2/9/5 3/11/5 4/12/5
f 5/1/6 2/9/6 6/7/6
f 13/13/1 11/14/1 9/15/1
f 11/14/2 16/16/2 12/17/2
f 15/18/3 14/19/3 16/20/3
f 10/21/4 16/22/4 14/19/4
f 9/15/5 12/23/5 10/21/5
f 13/13/6 10/21/6 14/19/6
f 21/24/1 19/25/1 17/26/1
f 19/25/2 24/27/2 20/28/2
f 23/29/3 22/30/3 24/31/3
f 18/32/4 24/33/4 22/30/4
f 17/26/5 20/34/5 18/32/5
f 21/24/6 18/32/6 22/30/6
f 29/35/1 27/36/1 25/37/1
f 27/36/2 32/38/2 28/39/2
f 31/40/3 30/41/3 32/42/3
f 26/43/4 32/44/4 30/41/4
f 25/37/5 28/45/5 26/43/5
f 29/35/6 26/43/6 30/41/6
f 5/1/1 7/46/1 3/2/1
f 3/2/2 7/46/2 8/4/2
f 7/6/3 5/1/3 6/7/3
f 2/9/4 4/47/4 8/10/4
f 2/9/5 1/3/5 3/11/5
f 5/1/6 1/3/6 2/9/6
f 13/13/1 15/48/1 11/14/1
f 11/14/2 15/48/2 16/16/2
f 15/18/3 13/13/3 14/19/3
f 10/21/4 12/49/4 16/22/4
f 9/15/5 11/50/5 12/23/5
f 13/13/6 9/15/6 10/21/6
f 21/24/1 23/51/1 19/25/1
f 19/25/2 23/51/2 24/27/2
f 23/29/3 21/24/3 22/30/3
f 18/32/4 20/52/4 24/33/4
f 17/26/5 19/53/5 20/34/5
f 21/24/6 17/26/6 18/32/6
f 29/35/1 31/54/1 27/36/1
f 27/36/2 31/54/2 32/38/2
f 31/40/3 29/35/3 30/41/3
f 26/43/4 28/55/4 32/44/4
f 25/37/5 27/56/5 28/45/5
f 29/35/6 25/37/6 26/43/6
