# Blender 4.1.1
# www.blender.org
mtllib playerhead.mtl
o Cube.013
v 0.652448 0.256620 -0.458081
v 0.652448 -0.256620 -0.458081
v 0.652448 0.256620 0.458081
v 0.652448 -0.256620 0.458081
v -0.652448 0.256620 -0.458081
v -0.652448 -0.256620 -0.458081
v -0.652448 0.256620 0.458081
v -0.652448 -0.256620 0.458081
vn -0.0000 1.0000 -0.0000
vn -0.0000 -0.0000 1.0000
vn -1.0000 -0.0000 -0.0000
vn -0.0000 -1.0000 -0.0000
vn 1.0000 -0.0000 -0.0000
vn -0.0000 -0.0000 -1.0000
vt 0.295835 0.500252
vt 0.703811 0.213062
vt 0.704165 0.499748
vt 0.295283 0.052962
vt 0.703612 0.052458
vt 0.009149 0.500606
vt 0.296034 0.660855
vt 0.009347 0.661209
vt 0.704363 0.660351
vt 0.296388 0.947542
vt 0.991049 0.659997
vt 0.295481 0.213566
vt 0.704717 0.947038
vt 0.990851 0.499394
s 0
usemtl マテリアル.004
f 5/1/1 3/2/1 1/3/1
f 3/2/2 8/4/2 4/5/2
f 7/6/3 6/7/3 8/8/3
f 2/9/4 8/10/4 6/7/4
f 1/3/5 4/11/5 2/9/5
f 5/1/6 2/9/6 6/7/6
f 5/1/1 7/12/1 3/2/1
f 3/2/2 7/12/2 8/4/2
f 7/6/3 5/1/3 6/7/3
f 2/9/4 4/13/4 8/10/4
f 1/3/5 3/14/5 4/11/5
f 5/1/6 1/3/6 2/9/6
